<?xml version="1.0" encoding="UTF-8" standalone="no"?>
<!-- Generator: Adobe Illustrator 15.0.2, SVG Export Plug-In . SVG Version: 6.00 Build 0)  -->

<svg
   xmlns:dc="http://purl.org/dc/elements/1.1/"
   xmlns:cc="http://creativecommons.org/ns#"
   xmlns:rdf="http://www.w3.org/1999/02/22-rdf-syntax-ns#"
   xmlns:svg="http://www.w3.org/2000/svg"
   xmlns="http://www.w3.org/2000/svg"
   xmlns:sodipodi="http://sodipodi.sourceforge.net/DTD/sodipodi-0.dtd"
   xmlns:inkscape="http://www.inkscape.org/namespaces/inkscape"
   version="1.1"
   id="Layer_1"
   x="0px"
   y="0px"
   width="180px"
   height="150px"
   viewBox="0 0 180 150"
   enable-background="new 0 0 180 150"
   xml:space="preserve"
   inkscape:version="0.48.5 r10040"
   sodipodi:docname="P A N.svg"><metadata
     id="metadata30"><rdf:RDF><cc:Work
         rdf:about=""><dc:format>image/svg+xml</dc:format><dc:type
           rdf:resource="http://purl.org/dc/dcmitype/StillImage" /></cc:Work></rdf:RDF></metadata><defs
     id="defs28" /><sodipodi:namedview
     width="549.99969px"
     height="975px"
     id="base"
     inkscape:window-y="27"
     inkscape:window-x="0"
     inkscape:window-height="712"
     inkscape:window-width="1024"
     inkscape:current-layer="Layer_1"
     inkscape:document-units="px"
     inkscape:pageshadow="2"
     inkscape:pageopacity="0.0"
     inkscape:cy="86.227468"
     inkscape:cx="92.47549"
     inkscape:zoom="3.4535751"
     objecttolerance="10"
     guidetolerance="10"
     gridtolerance="10000"
     bordercolor="#666666"
     borderopacity="1.0"
     pagecolor="#ffffff"
     showgrid="false"
     inkscape:window-maximized="0" /><g
     id="layer4"
     inkscape:groupmode="layer"
     inkscape:label="Piezas" /><g
     id="layer5"
     inkscape:groupmode="layer"
     inkscape:label="Muebles" /><g
     id="layer6"
     inkscape:groupmode="layer"
     inkscape:label="Ornamentos" /><g
     id="g7"><g
       id="XMLID_1_"><g
         id="g10"><polygon
           points="175.176,48.685 134.34,48.685 109.716,146.554 21.05,146.554 45.675,48.685 4.838,48.685 102.245,3.44 "
           id="polygon12"
           style="fill:#003399" /></g><g
         id="g14" /></g><g
       id="g16"><g
         id="g18"><path
           stroke-miterlimit="10"
           d="m 152.973,100.835 2.016,-11.215 3.629,-15.658 h 14.655 l -11.409,49.232 h -14.331 l -10.455,-26.804 -2.015,11.215 -3.613,15.59 h -14.656 l 11.409,-49.232 h 14.332 l 10.438,26.872 z"
           id="path20"
           inkscape:connector-curvature="0"
           style="fill:#ffff33;stroke:#003399;stroke-width:3;stroke-miterlimit:10" /></g><g
         id="g22"><path
           d="M 44.669,121.829 57.197,75.06 h 19.634 c 11.712,0 15.717,6.171 13.142,15.785 -2.696,10.068 -9.607,16.434 -21.319,16.434 H 61.92 L 58.023,121.83 H 44.669 z M 70.388,96.366 c 3.111,0 5.758,-1.429 6.837,-5.456 1.165,-4.353 -2.979,-4.936 -5.808,-4.936 h -3.791 l -2.783,10.392 h 5.545 z"
           id="path24"
           inkscape:connector-curvature="0"
           style="fill:#ffff33" /><path
           d="M 74.773,121.829 101.898,75.06 h 13.579 l 2.07,46.769 h -13.296 l 0.069,-6.172 H 91.024 l -3.181,6.172 h -13.07 z m 30.025,-32.673 -8.619,16.758 h 8.431 l 0.188,-16.758 z"
           id="path26"
           inkscape:connector-curvature="0"
           style="fill:#ffff33" /></g></g></g></svg>