<?xml version="1.0" encoding="UTF-8" standalone="no"?>
<!-- Created with Inkscape (http://www.inkscape.org/) -->

<svg
   xmlns:dc="http://purl.org/dc/elements/1.1/"
   xmlns:cc="http://creativecommons.org/ns#"
   xmlns:rdf="http://www.w3.org/1999/02/22-rdf-syntax-ns#"
   xmlns:svg="http://www.w3.org/2000/svg"
   xmlns="http://www.w3.org/2000/svg"
   xmlns:sodipodi="http://sodipodi.sourceforge.net/DTD/sodipodi-0.dtd"
   xmlns:inkscape="http://www.inkscape.org/namespaces/inkscape"
   width="982.06677"
   height="1079.5586"
   id="svg2"
   sodipodi:version="0.32"
   inkscape:version="0.48.5 r10040"
   version="1.0"
   sodipodi:docname="Guatemala.svg"
   inkscape:output_extension="org.inkscape.output.svg.inkscape">
  <title
     id="title3863">Mapa de Guatemala</title>
  <defs
     id="defs4">
    <inkscape:perspective
       sodipodi:type="inkscape:persp3d"
       inkscape:vp_x="0 : 526.18109 : 1"
       inkscape:vp_y="0 : 1000 : 0"
       inkscape:vp_z="744.09448 : 526.18109 : 1"
       inkscape:persp3d-origin="372.04724 : 350.78739 : 1"
       id="perspective10" />
    <inkscape:perspective
       sodipodi:type="inkscape:persp3d"
       inkscape:vp_x="0 : 526.18109 : 1"
       inkscape:vp_y="0 : 1000 : 0"
       inkscape:vp_z="744.09448 : 526.18109 : 1"
       inkscape:persp3d-origin="372.04724 : 350.78739 : 1"
       id="perspective3614" />
    <inkscape:perspective
       sodipodi:type="inkscape:persp3d"
       inkscape:vp_x="0 : 526.18109 : 1"
       inkscape:vp_y="0 : 1000 : 0"
       inkscape:vp_z="744.09448 : 526.18109 : 1"
       inkscape:persp3d-origin="372.04724 : 350.78739 : 1"
       id="perspective3066" />
    <inkscape:perspective
       id="perspective2995"
       inkscape:persp3d-origin="548.37646 : 353.84066 : 1"
       inkscape:vp_z="1096.7529 : 530.76099 : 1"
       inkscape:vp_y="0 : 1000 : 0"
       inkscape:vp_x="0 : 530.76099 : 1"
       sodipodi:type="inkscape:persp3d" />
  </defs>
  <sodipodi:namedview
     id="base"
     pagecolor="#ffffff"
     bordercolor="#666666"
     borderopacity="1.0"
     gridtolerance="10000"
     guidetolerance="10"
     objecttolerance="10"
     inkscape:pageopacity="0.0"
     inkscape:pageshadow="2"
     inkscape:zoom="0.70710678"
     inkscape:cx="448.90231"
     inkscape:cy="515.01167"
     inkscape:document-units="px"
     inkscape:current-layer="layer2"
     showgrid="false"
     inkscape:window-width="1680"
     inkscape:window-height="984"
     inkscape:window-x="0"
     inkscape:window-y="27"
     inkscape:window-maximized="1" />
  <metadata
     id="metadata7">
    <rdf:RDF>
      <cc:Work
         rdf:about="">
        <dc:format>image/svg+xml</dc:format>
        <dc:type
           rdf:resource="http://purl.org/dc/dcmitype/StillImage" />
        <dc:title>Mapa de Guatemala</dc:title>
        <dc:creator>
          <cc:Agent>
            <dc:title>Gerson Alvarado</dc:title>
          </cc:Agent>
        </dc:creator>
        <dc:rights>
          <cc:Agent>
            <dc:title />
          </cc:Agent>
        </dc:rights>
        <dc:description>Mapa de la división territorial de Guatemala</dc:description>
        <dc:language>ES</dc:language>
        <cc:license
           rdf:resource="http://creativecommons.org/licenses/by-sa/3.0/" />
        <dc:subject>
          <rdf:Bag>
            <rdf:li>Guatemala</rdf:li>
            <rdf:li>mapa</rdf:li>
            <rdf:li />
          </rdf:Bag>
        </dc:subject>
        <dc:date>2014-10-02</dc:date>
        <dc:source>https://github.com/Lewatoto/ippgt/</dc:source>
      </cc:Work>
      <cc:License
         rdf:about="http://creativecommons.org/licenses/by-sa/3.0/">
        <cc:permits
           rdf:resource="http://creativecommons.org/ns#Reproduction" />
        <cc:permits
           rdf:resource="http://creativecommons.org/ns#Distribution" />
        <cc:requires
           rdf:resource="http://creativecommons.org/ns#Notice" />
        <cc:requires
           rdf:resource="http://creativecommons.org/ns#Attribution" />
        <cc:permits
           rdf:resource="http://creativecommons.org/ns#DerivativeWorks" />
        <cc:requires
           rdf:resource="http://creativecommons.org/ns#ShareAlike" />
      </cc:License>
    </rdf:RDF>
  </metadata>
  <g
     inkscape:groupmode="layer"
     id="layer2"
     inkscape:label="mapa"
     style="display:inline"
     sodipodi:insensitive="true">
    <path
       style="fill:#fefee9;fill-opacity:1;stroke:#000000;stroke-width:3;stroke-linecap:butt;stroke-linejoin:round;stroke-miterlimit:4;stroke-opacity:1;stroke-dasharray:none"
       d="m 789.67548,516.14569 c 0,0 -3.8595,0.70714 -8.38686,1.33486 -4.52735,0.62773 -9.72257,1.17604 -13.10112,0.32805 -3.30747,-0.83015 -6.14835,-4.87969 -7.0625,-4.375 -1.17462,0.64849 -3.61623,3.13069 -6.625,2.875 -2.30859,-0.19619 -3.23083,-2.71868 -5.75,-2.75 -2.57716,-0.032 -4.3152,2.26502 -7.25,4.1875 -0.62415,0.40886 -5.63751,-6.58302 -9.69454,-4.05362 -5.75835,3.59012 -9.14658,8.98277 -12.92288,4.20007 C 717.95059,498.9069 735.5,238.3086 735.5,238.3086 L 733,57.808597 l -418,0 0,134.000003 -105,0 c 0,0 0.95673,4.00372 2.82322,5.83579 1.62897,1.59892 3.49064,1.87665 6.2709,2.72692 2.78026,0.85027 6.65588,3.68729 6.65588,3.68729 0,0 1.38235,5.70502 3.75,6.25 2.22994,0.51328 5.75,-3.75 5.75,-3.75 0,0 2.94996,2.42278 4.75,2.75 1.99489,0.36265 6,-1 6,-1 0,0 1.99508,10.3338 5.10355,14.55806 1.98671,2.69983 5.88945,3.50716 7.89645,6.19194 1.10448,1.47747 0.85231,3.6385 1.75,5.25 0.9502,1.70576 2.67162,2.87224 3.75,4.5 1.84529,2.78537 2.27767,6.05028 4.58839,8.91161 2.06376,2.55554 7.39307,-0.24705 10.16161,1.83839 1.99465,1.5025 1.96451,4.60906 3.25,6.75 1.59587,2.65788 3.34117,5.27502 5.5,7.5 2.05253,2.11542 5.43329,2.85983 6.96967,5.44194 1.02171,1.71713 -0.27024,3.77754 1.07322,5.52773 1.29358,1.68518 4.62545,2.1869 6.44194,3.31066 1.79303,1.10924 2.93939,2.99237 4.89645,3.77773 1.80969,0.72622 3.64541,-4.90617 6.83839,-5.7474 1.60561,-0.42302 4.19083,-0.38248 4.83839,1.14645 0.43603,1.0295 -1.29377,1.19998 -1.05806,2.29289 0.72437,3.3587 5.51771,3.55818 7.29289,6.5 1.31722,2.18288 0.36897,5.7333 2.20711,7.5 2.67683,2.5728 4.61897,1.00769 10.11612,1.75 1.60436,1.14479 1.52555,4.39907 3.66161,5.21967 3.9436,1.51499 13.22227,-2.71967 13.22227,-2.71967 0,0 3.02682,5.68306 5.38649,7.78293 5.23934,4.66252 9.41181,5.80784 14.25996,10.83579 1.87701,1.94662 3.27832,3.93329 4.85355,6.13128 2.18677,3.05129 5.63119,5.23144 6.86612,8.92678 0.66243,1.98223 0.38388,6.07322 0.38388,6.07322 0,0 1.97703,1.10315 1.79289,2.10355 -0.7213,3.91886 -2.67302,8.67045 -2.14644,10.07062 1.20991,3.21717 10.22193,0.32893 10.66161,1.06066 1.50161,2.49904 -2.86897,5.10321 -4.05806,7.76517 -1.11718,2.50097 -3.80964,5.08505 -2.42678,7.85095 1.35112,2.7024 7.31993,2.22012 8.53033,4.66682 1.22331,2.47278 -3.76516,5.2019 -3.76516,5.2019 0,0 4.18866,1.97601 6.41161,2.03033 3.37553,0.0825 6.45694,-2.57084 9.96967,-1.79289 2.49053,0.55156 3.0788,3.29848 5.38128,4.39644 1.98542,0.94677 5.72986,-0.6166 7.58839,1.08839 2.26459,2.07751 3.06066,8.55806 3.06066,8.55806 0,0 8.8211,1.0539 13.25,1 2.51228,-0.0306 7.5,-0.75 7.5,-0.75 0,0 1.00772,3.88911 1.75,5.75 0.41423,1.03847 1.5,3 1.5,3 l -7.5,6.25 c 0,0 4.70518,2.31942 4.75,4.5 0.086,4.18325 -10.69064,7.19262 -9.5455,8.82322 1.99266,2.83741 6.7955,5.17678 6.7955,5.17678 0,0 -3.23342,4.95357 -5.75,6.25 -1.79178,0.92305 -6,0.75 -6,0.75 0,0 3.60651,2.82154 3.375,4.75 -0.19716,1.64233 -3.05061,1.75101 -3.75,3.25 -1.0748,2.30361 -1.36969,5.40857 -0.125,7.625 1.49061,2.65433 7.34371,1.62749 7.875,4.625 0.32029,1.80706 -3.06249,2.46769 -3.5,4.25 -0.38573,1.57139 1.43599,3.19181 1,4.75 -0.7387,2.64007 -6.17177,3.31361 -5.625,6 0.39067,1.91942 4.55707,0.59517 5.375,2.375 0.96324,2.09603 -2,6.625 -2,6.625 l -295.5,0 -112.5,191.62499 c 0,0 19.122664,24.67363 33.375,42.5 0.753006,2.43328 -0.262986,4.94298 -1.295495,7.27145 -1.481138,3.3402 -3.734978,5.81547 -6.917893,7.60983 -2.775411,1.56464 -8.745701,-0.19565 -9.228554,2.7526 -1.914792,11.69154 3.14173,17.98007 -0.40533,25.56695 -1.636739,3.50085 -5.766587,2.80984 -7.960786,6.06434 -1.88399,2.79438 -3.554246,5.8567 -3.09467,9.49111 0.346535,2.74046 2.726145,4.69463 3.622398,7.51517 0.719242,2.26347 0.101459,5.14259 0.53033,7.47855 0.402449,2.19204 1.847427,4.08466 2.375,6.25 1.270377,5.21405 2.705674,10.87991 1.84467,15.99372 -0.728123,4.32458 -4.372443,7.35685 -5.625,11.00888 -0.971206,2.83171 -0.99342,5.92385 -1.816942,8.25628 -1.57089,4.44918 -3.424964,8.19237 -6.603553,11.07323 -2.018833,1.82973 -6.174175,2.54289 -6.174175,2.54289 l 0.758699,2.35147 2.65165,3.40295 5.877825,3.18198 6.98268,6.54074 6.761708,3.31456 6.894291,5.3033 7.159456,5.21491 7.689787,6.62913 6.894291,5.21491 8.131728,7.33623 5.745242,5.21492 11.799845,9.67852 7.115258,5.78944 8.70626,5.74524 5.65685,3.97747 9.98788,7.07107 9.94369,5.78944 8.30851,4.68458 8.75044,7.99915 5.78944,5.03813 12.46276,3.31457 6.27557,7.99914 4.59619,2.34229 7.73398,1.76777 7.55721,3.49134 9.41336,3.97747 9.104,4.37523 11.53468,4.64039 13.78858,2.65165 10.34144,2.12132 2.56326,2.03293 14.05374,1.41421 11.75565,1.85616 c 0,0 9.14281,-0.20501 13.7002,0.0884 4.10272,0.26414 12.24178,1.5026 12.24178,1.5026 0,0 3.91748,-0.59647 5.87783,-0.88389 2.98888,-0.43821 5.96634,-0.97357 8.97142,-1.28163 3.7589,-0.38534 7.53696,-0.58919 11.31371,-0.7071 3.51909,-0.10986 10.5624,0 10.5624,0 l 6.36396,-1.90035 5.74525,1.63518 c 0,0 13.90633,-0.50371 20.85965,-0.7513 7.11516,-0.25335 13.43212,-1.17194 20.4619,-0.0442 2.18593,0.35068 5.00519,0.921 7.11526,1.59099 3.69191,1.17225 7.45704,2.10831 11.22532,3.0052 3.36716,0.80142 6.84656,1.13632 10.16466,2.12132 4.31934,1.28223 8.51002,3.0053 12.59534,4.90555 5.1883,2.41333 10.01948,5.53083 15.07021,8.22013 2.98933,1.5917 5.73059,3.861 9.01562,4.6846 2.35788,0.5911 7.29203,0.088 7.29203,0.088 l 1.19325,2.74 c 0,0 1.46452,-0.4669 2.20971,-0.3977 2.2284,0.2071 4.23799,1.4607 6.27557,2.3864 1.62603,0.7387 3.11743,1.7489 4.72877,2.5191 2.03665,0.9735 4.0997,1.909 6.23138,2.6517 2.46702,0.8596 5.22917,0.8916 7.55721,2.0771 2.08296,1.0607 5.48007,4.3752 5.48007,4.3752 0,0 4.71312,2.2806 9.8995,3.1378 1.21683,-1.7884 2.3755,-1.9458 2.16552,-3.6681 -0.33447,-2.7435 -4.52526,-5.1771 -5.12653,-7.6898 -0.48798,-2.0393 0.80786,-3.3933 1.28163,-5.4359 0.55596,-2.3971 0.72774,-3.4026 1.37002,-6.8501 0.56248,-3.0191 2.26657,-6.237 5.48007,-7.4246 3.59334,-1.32796 7.33205,-3.46864 9.54595,-6.93849 1.26646,-1.98493 0.41486,-5.25758 2.25391,-7.55721 4.65881,-5.82562 13.34793,-7.25896 20.37351,-12.1092 1.58853,-1.09668 2.19963,-3.10881 3.31456,-4.68459 0.61963,-0.87574 1.76302,-1.67203 2.81509,-3.17707 1.05207,-1.50503 2.01284,-3.71881 2.79757,-4.42433 1.86388,-1.67573 4.54344,-1.52757 6.85009,-2.65165 2.06322,-1.00545 3.58671,-3.14104 5.78945,-3.84489 2.53241,-0.80919 5.08297,-0.88115 7.77816,0.26517 2.94079,1.25078 5.24006,4.6156 8.04335,6.49654 2.25331,1.51191 7.50788,0.78532 8.08753,-1.86558 0.96132,-4.39634 0.44194,-10.64137 0.57453,-10.95073 0.13258,-0.30936 2.43067,-4.41942 2.43067,-4.41942 l 2.87263,-6.71751 10.25304,-8.97142 c 0,0 7.71237,-7.55973 9.27542,-8.05314 1.50825,-0.47611 9.01491,0.58718 13.71,0.3678 1.21454,-0.0567 2.4564,-0.62357 3.60653,-1.08249 2.6914,-1.07391 8.49823,-2.14813 8.49823,-2.14813 0,0 -0.21864,-1.59512 -0.10448,-2.39943 0.16931,-1.19287 1.6457,-2.52964 1.03256,-3.56678 -0.33677,-0.56967 -1.29609,-0.3047 -1.90035,-0.57453 -1.16499,-0.52022 -2.50444,-0.83567 -3.27037,-1.98874 -0.35493,-0.53433 -3.92038,-2.24539 -5.09804,-3.26684 -1.3321,-1.15541 -2.24477,0.11136 -3.13724,-1.45971 -0.68289,-1.20212 -0.83926,-2.86382 0.23705,-3.90019 0.81956,-0.78914 2.36188,-1.3303 3.57881,-0.69823 0.64325,0.3341 0.91495,1.12644 1.32583,1.72358 1.35957,1.9759 3.16637,4.80112 2.20526,-1.21155 -0.2496,-1.56147 0.0533,-3.45968 -0.9009,-4.6587 -2.19011,-2.75211 -7.91347,0.484 -9.85974,-2.4414 -1.08674,-1.63345 -0.0678,-3.82984 0.99816,-5.47694 0.87472,-1.35162 2.99649,-1.46345 3.97748,-2.74003 -6.19811,-10.12814 -0.23289,-15.56331 3.81846,-15.35055 1.63267,0.0857 3.3373,1.27701 3.98246,2.77925 0.85329,1.98685 2.78147,3.93776 4.58547,3.49763 2.10575,-0.51374 2.97944,-6.89193 6.11894,-8.46828 2.43529,-1.22276 4.5913,-0.81182 6.77504,0.81824 2.29464,1.71285 4.42902,3.74916 6.90945,2.93198 3.94122,-1.29845 5.01721,-9.23557 7.14299,-10.51507 1.69079,-1.01768 8.31757,8.11243 9.86603,7.44293 1.54846,-0.6695 0.15274,-7.69324 2.09099,-10.83516 1.47473,-2.39055 4.19849,-3.12429 6.22195,-5.01094 1.6975,-1.58272 2.44585,-3.58147 4.18328,-5.12025 1.26765,-1.12271 3.16324,-1.28877 4.50781,-2.34229 2.85988,-2.2408 4.37262,-5.09884 6.67332,-8.61787 1.33167,-2.03684 2.24343,-4.21961 4.94975,-5.2591 2.96202,-1.1377 6.88094,1.15721 10.29724,0.44194 2.75141,-0.57605 6.23622,-1.33878 7.73398,-4.46361 2.11429,-4.41109 -0.27751,-11.70795 0.97227,-16.30765 0.78527,-2.89008 3.76432,-4.18032 4.41942,-7.07107 0.38249,-1.68781 0.16537,-3.16505 -0.66291,-4.68458 -1.42588,-2.61586 -4.3473,-3.19997 -6.36397,-6.27557 -1.63667,-2.49607 -3.32874,-7.3076 -4.72877,-9.94369 -1.42202,-2.6775 -3.40726,-4.94467 -4.99394,-7.60139 -1.54042,-2.57925 -3.62764,-5.11919 -4.37522,-8.04335 -0.8466,-3.31146 -2.53922,-7.50071 -0.39775,-10.16466 2.19698,-2.733 8.17666,-6.68994 12.02081,-11.18112 1.77382,-2.07238 2.39538,-6.89123 1.41422,-9.72272 -0.82537,-2.38189 -3.78888,-3.72614 -4.6404,-6.0988 -0.7249,-2.01985 -0.37969,-3.80477 0.48615,-6.18719 1.18585,-3.26296 2.68132,-8.32941 6.0546,-9.36916 3.04142,-0.93746 5.72054,-1.36983 8.3527,-2.34229 4.29774,-1.58782 7.55397,-4.40411 11.97662,-6.14298 1.7504,-0.68822 3.89798,-1.27827 5.65685,-1.94455 1.77706,-0.67318 4.94975,-2.82843 4.94975,-2.82843 0.0847,-0.0484 5.66965,-0.36578 12.15339,-4.5078 1.53749,-0.9822 2.23637,-2.84079 3.71232,-4.06587 1.25736,-1.04364 4.94974,-3.22617 4.94974,-3.22617 6.42309,-6.13463 10.95465,-10.35986 18.38478,-16.88218 0,0 3.39899,-1.78809 4.81716,-2.65165 2.24814,-1.36895 4.14444,-3.18621 6.45235,-4.552 2.75584,-1.63086 5.98805,-2.49571 8.75045,-4.28683 2.16098,-1.40116 3.99465,-3.50882 6.0988,-4.99395 3.05277,-2.15467 6.75549,-2.93896 9.89949,-5.2591 4.29138,-3.16686 8.46587,-7.3368 11.75565,-11.53468 2.07581,-2.6488 5.25911,-8.61787 5.25911,-8.61787 0,0 7.76385,-2.1504 13.30244,-4.02167 0.0863,-2.74053 1.79852,-4.70508 3.35876,-6.62912 3.15464,-3.89021 6.44554,-7.67996 11.71146,-9.41336 4.10478,-4.7613 7.85446,-6.52014 13.87697,-11.26951 2.94996,-2.95441 4.67219,-5.65404 7.38042,-8.17593 3.19357,-2.97383 7.21473,-4.74986 10.96016,-7.15946 2.96362,-1.90663 5.34749,-3.57972 5.34749,-3.57972 0,0 2.30398,-1.37636 3.35876,-2.12132 1.73649,-1.22644 3.50844,-2.28089 4.72878,-4.02167 1.76881,-2.52316 1.15894,-6.81256 3.66811,-8.48528 1.50891,-1.0059 3.35876,0.47141 4.90556,0.22097 1.54679,-0.25043 3.84489,-1.72357 3.84489,-1.72357 0,0 -0.78009,-3.55633 -0.0442,-5.08233 0.70657,-1.4652 3.84489,-3.00521 3.84489,-3.00521 0,0 -7.77996,-2.02845 -11.00435,-4.28683 -2.35985,-1.65285 -3.63684,-4.48661 -5.70105,-6.49655 -1.22163,-1.18951 -2.63782,-2.16172 -3.93328,-3.27037 -1.62566,-1.39124 -3.06299,-3.01739 -4.81716,-4.24264 -0.96193,-0.67189 -2.12624,-1.01532 -3.0936,-1.67937 -1.40428,-0.96398 -2.50723,-2.13723 -4.02166,-2.91682 -5.18437,-2.66878 -11.56854,-2.1438 -16.83799,-4.64039 -1.4937,-0.7077 -2.59273,-2.05853 -3.97747,-2.96101 -2.35438,-1.53442 -4.98459,-2.61564 -7.33623,-4.15425 -0.678,-0.4436 -1.30293,-0.96364 -1.94455,-1.45841 -1.22068,-0.94129 -2.63096,-1.69359 -3.62392,-2.87262 -0.83233,-0.98829 -1.0949,-2.35893 -1.85616,-3.40295 -0.99453,-1.36393 -2.15472,-2.63717 -3.49134,-3.66812 -1.42529,-1.09934 -3.30815,-1.50208 -4.72877,-2.60745 -1.73562,-1.35048 -2.74535,-3.50191 -4.50781,-4.81717 -0.76559,-0.57133 -1.75066,-0.77941 -2.56326,-1.28163 -1.25313,-0.77447 -2.14799,-2.1568 -3.53553,-2.65165 -0.6666,-0.23773 -1.5225,-0.46561 -2.12132,-0.0884 -1.0442,0.65776 -1.35796,2.17294 -1.45841,3.40295 -0.0951,1.16446 0.13426,2.47161 0.83969,3.40295 1.13524,1.4988 3.27422,1.8494 4.90555,2.78424 2.06732,1.18469 4.49535,1.90193 6.18718,3.57973 1.89438,1.87867 2.17229,5.01482 4.06587,6.89429 1.66778,1.65536 4.10209,2.29662 6.09879,3.53553 1.2915,0.80134 2.72155,1.44877 3.8007,2.51907 1.04725,1.03867 2.47488,3.66811 2.47488,3.66811 0,0 -2.09856,0.65654 -3.18198,0.66292 -1.53119,0.009 -2.98181,-0.75767 -4.50781,-0.88389 -0.51405,-0.0425 -1.03666,0.12054 -1.54679,0.0442 -2.36811,-0.35436 -6.80591,-2.2981 -6.80591,-2.2981 0,0 2.31131,3.75689 2.69585,5.87783 0.36886,2.03448 0.33479,4.27097 -0.44194,6.18718 -0.67951,1.67636 -2.43295,2.68737 -3.49134,4.15425 -1.10284,1.52849 -2.44816,3.00347 -2.96101,4.81717 -0.6213,2.19721 0.25838,4.58139 0,6.85009 -0.2224,1.95279 -0.43973,3.99092 -1.32583,5.74525 -0.61232,1.2123 -1.42412,2.5124 -2.65165,3.09359 -1.79789,0.85124 -4.01368,0.5129 -5.96621,0.13258 -0.91325,-0.17789 -1.93241,-0.42097 -2.56327,-1.10485 -0.68543,-0.74304 -1.09416,-1.8691 -0.97227,-2.87262 0.099,-0.81541 1.01252,-1.31783 1.32583,-2.07713 0.89715,-2.17422 1.5026,-6.89429 1.5026,-6.89429 l -3.96532,-1.60557 c 0,0 -2.83566,-1.27062 -4.125,-2.125 -1.35637,-0.8988 -3.75,-3.125 -3.75,-3.125 0,0 -2.50831,-0.8195 -3.625,-1.5 -1.21183,-0.73848 -3.25,-2.75 -3.25,-2.75 0,0 -1.90583,-0.60704 -2.75,-1.125 -1.03237,-0.63343 -2.75,-2.375 -2.75,-2.375 l -2.75,-7.25 c 0,0 -2.23933,0.66143 -3.68488,2.09268 -1.70506,1.68821 -4.59729,2.75734 -6.42213,4.08665 -1.82484,1.32932 -3.78125,3.45855 -4.65886,5.22286 -1.0143,2.03909 -2.92644,3.16369 -3.5611,4.65831 -3.02812,7.13115 1.47668,5.96138 -2.08568,8.61954 -1.30915,0.97685 -2.01629,1.20744 -2.60472,2.09259 -0.58844,0.88516 -2.38399,3.75072 -2.86478,4.69423 -0.48078,0.9435 -3.18232,1.24659 -4.1685,2.39849 -0.98619,1.1519 0.18492,2.79907 -1.91972,4.30942 -1.05232,0.75517 -10.02701,-1.36446 -11.44967,0.36074 -1.42266,1.72521 -0.87725,1.99218 -2.55727,4.4144 -1.68001,2.42222 -6.64796,-0.6253 -8.47235,2.22093 -1.82439,2.84623 1.80728,5.83621 -0.0485,8.83343 -1.85578,2.99721 -3.5115,0.75167 -5.28568,3.62687 -1.77418,2.8752 0.35259,3.67129 1.00358,6.53879 0.25803,1.13656 2.72928,1.91201 2.61978,4.12331 -0.005,0.0994 1.00486,3.58907 0.91368,3.83015 -0.0912,0.24107 1.23562,3.50915 1.06923,3.87258 -0.16639,0.36344 -0.67696,4.76073 -0.90743,5.22727 -0.23047,0.46655 -2.61152,0.4495 -2.89497,0.9999 -0.28345,0.55039 -2.44678,1.35887 -2.7721,1.97385 -0.32533,0.61499 -1.59688,2.71587 -1.95298,3.37619 -0.3561,0.66032 -2.90397,0.46764 -3.27974,1.15403 -0.37577,0.6864 -2.1961,2.59976 -2.58044,3.29297 -0.38434,0.69322 -3.02019,3.76002 -3.402,4.44079 -0.38181,0.68077 -2.97832,2.81925 -3.81524,3.15582 -0.69232,0.27842 -1.6955,1.58997 -2.44519,2.00058 -0.60491,0.33131 -3.92173,0.32217 -4.54182,0.69381 -0.52407,0.31409 -3.5945,1.39086 -4.0739,1.67303 -0.43957,0.25872 -5.02632,1.17103 -5.54143,1.28197 -0.37829,0.0815 -6.74586,0.0288 -7.31683,-0.11329 -0.23469,-0.0584 -7.63209,-1.38977 -7.70742,-1.37876 -3.33228,0.48699 -4.36652,-0.0237 -11.08895,-1.42938 -1.91975,-0.40143 -1.97647,1.21506 -0.67321,1.77994 3.75401,1.62712 3.51642,2.20578 0.61217,3.97447 -1.36343,0.83034 -2.68576,3.97614 -5.31165,4.26462 -1.50239,0.16505 -4.19567,3.8003 -5.27479,3.35749 -0.63683,-0.26132 -4.0987,-0.17411 -4.76253,-2.15279 -0.66382,-1.97868 -2.50381,-2.15676 -2.60248,-3.85316 -0.0704,-1.21127 1.98304,-1.68153 2.2016,-3.11244 0.12784,-0.83692 -0.98969,-3.86597 -1.36596,-4.90472 -0.28605,-0.78967 1.01853,-2.13293 1.17103,-3.53761 0.20603,-1.89783 -2.09446,-4.96291 -2.18368,-5.0043 0,0 -1.21526,0.0472 -1.69515,0.0149 -0.47989,-0.0323 -1.03692,-0.1442 -1.84546,-0.21234 -0.80853,-0.0682 -1.05607,-1.78016 -2.042,-1.88775 -0.98592,-0.10758 -1.89773,1.38925 -2.9098,1.23871 -1.01206,-0.15054 -2.09313,-1.4797 -2.98009,-1.67675 -0.88695,-0.19704 -1.39229,-0.48073 -3.27484,-1.28336 0.40248,-1.22944 2.65172,-0.64331 4.32568,-2.95718 0.9365,-1.29451 1.29745,-4.51409 2.80787,-5.64825 1.51042,-1.13416 4.27964,-1.30101 6.26716,-2.13571 0.73733,-0.30966 3.63651,-0.47855 5.16293,-1.33605 1.2415,-0.69745 2.88904,0.28806 4.39514,1.29398 1.56603,1.04595 2.95346,0.83906 4.87031,0.53871 1.91685,-0.30035 2.85918,-1.00515 4.64389,-2.497 1.44417,-1.20719 2.42253,-1.93116 3.80646,-4.45311 -0.1158,-3.69908 0.13679,-7.18712 5.0003,-6.14792 2.73794,0.58502 2.964,-0.0842 5.02323,-0.11614 2.05922,-0.0319 2.38486,-2.62466 4.13402,-2.17015 2.0273,0.52677 3.25014,3.93596 5.09678,3.41287 0.92332,-0.26155 3.24297,-0.002 5.53655,-0.81578 2.29358,-0.81378 4.56109,-2.70094 5.73369,-2.65966 0.26633,0.009 3.10992,0.57379 4.72242,-0.62054 1.61251,-1.19433 3.45235,-2.20286 6.79352,-2.64352 1.08727,-3.04811 0.91243,-4.9452 2.85263,-6.13057 2.14875,-1.31279 2.80999,-1.99472 3.81573,-2.55227 0.30087,-0.16679 2.123,-0.0675 3.81059,-1.65805 1.68759,-1.59059 0.76576,-3.63367 3.00333,-5.7872 2.23756,-2.15353 5.47844,-4.3084 8.08271,-4.99146 2.52532,-0.66236 4.8688,-1.30431 5.17179,-2.85057 0.23426,-1.19547 -0.17675,-4.23817 0.52515,-5.35446 0.7019,-1.11628 1.67295,1.06885 2.60883,0.079 0.93587,-0.98981 1.49281,-2.59206 2.42899,-3.4081 0.93617,-0.81604 2.62658,1.06037 3.32939,0.46539 1.40562,-1.18997 2.78509,-1.7084 4.35982,-3.35226 1.14169,-1.1918 4.30004,-0.57367 5.27231,-1.39891 1.94455,-1.65048 -0.30756,-6.89092 2.13512,-8.11074 0.48285,-0.24112 1.10659,-1.35933 2.39878,-2.32048 1.24951,-0.9294 2.53248,-2.61844 3.64735,-4.37214 1.22148,-1.92141 2.94136,-3.08163 3.91807,-4.71 0.89874,-1.49838 2.36713,-2.64243 3.21093,-3.33401 3.37521,-2.76633 -2.20663,-6.73244 -2.20663,-6.73244 0,0 -5.19826,0.49803 -7.86742,1.19692 -2.58096,0.6758 -7.88258,2.92808 -7.88258,2.92808 0,0 -0.67114,-2.38491 -1.375,-3.375 -0.80398,-1.13092 -2.18666,-1.72782 -3.125,-2.75 -1.1665,-1.27072 -3.0745,-4.16251 -3.0745,-4.1625 z"
       id="path3088"
       inkscape:connector-curvature="0"
       sodipodi:nodetypes="csssssssccccccsscscscssssssssssssssssscscsssscsssssscsssscscsccsscscssssssssccccsssssssssssssccccccccccccccccccccccccccccccccccscssscccssssssssccsssssccssssssssssssssssccccssscssssssssssssscssssssszsssssssssssssssssssssssssssccssssssccsccsscsssscscssssssssssssssssssssssssscssscsssssssssssccscscsccsssssssssssssssssssssssssssssssssssssssssssssssscssssssscssssssscssssssssssssssssscscsscc" />
    <path
       style="fill:none;stroke:#000000;stroke-width:2;stroke-linecap:butt;stroke-linejoin:round;stroke-miterlimit:4;stroke-opacity:1;stroke-dasharray:none"
       d="m 281.95883,475.51263 c 0,0 0.31026,3.29306 -0.21783,4.80422 -0.58374,1.67039 -2.52194,2.76685 -3.14001,4.46139 -0.59776,1.63883 -1.3189,3.45668 -0.6875,4.981 0.57403,1.38582 2.31651,1.80251 3.33823,2.90073 1.90132,2.04367 5.47916,6.33271 5.47916,6.33271 0,0 6.80513,-1.13453 8.65225,0.93658 0.82468,0.92469 -0.43312,2.17815 0,3.33731 0.83253,2.22809 5.48231,4.34531 4.99172,5.07475 -0.29926,0.48397 -5.80238,14.71168 -5.80238,14.71168 l -1.47671,15.56891 -16.86609,-6.54166 c 0,0 1.97385,2.61666 1.35171,3.72303 -1.94238,3.45419 -7.79793,4.09056 -9.44146,6.86396 -0.21263,1.73779 8.78793,-0.69446 10.58607,2.3508 1.461,2.47429 -2.55953,4.84591 -3.3655,7.621 -1.07397,3.69789 -0.24805,8.31134 -2.91146,11.24049 -0.99049,1.08932 -2.57005,0.99128 -4.00734,1.89277 -1.27507,0.79975 -2.74989,2.32346 -3.8802,3.37928 -1.94319,1.81515 -4.4956,2.59564 -6.16574,5.14705 -0.96261,1.47055 -0.47811,5.12802 -2.09099,6.13633 -6.72714,4.20553 -9.83516,1.99761 -13.97424,5.44975 -0.60237,1.94252 3.04831,3.33471 3.18106,4.27205 0.64346,4.54358 -11.60662,3.93946 -10.32627,5.50336 0.78889,0.9636 3.94178,32.55724 3.94178,32.55724 0,0 1.73868,-0.20992 2.66146,0.19731 2.14014,0.94446 3.861,2.60528 5.52205,4.25244 1.79441,1.7794 2.70798,4.63374 5.01316,5.68718 2.90281,1.32655 10.43924,-0.79343 13.97517,-0.50888 1.51522,0.12194 5.04251,3.51587 7.17462,5.78185 0.98874,1.05082 1.37415,3.19777 0.2598,4.93719 -0.47369,0.73941 -1.57732,1.16264 -2.35835,2.21289 -2.46106,3.30936 -3.17428,9.65361 -6.40625,11.40625 -1.88072,1.01988 -3.78513,-1.08057 -7.46875,0.34375 -2.30294,0.89046 -3.91416,2.41901 -6.46875,3.15625 -5.28434,1.52503 -14.2743,-0.47755 -16.65625,0.875 -1.68653,0.95767 1.60276,4.12872 0.65625,5.78125 -1.14828,2.0048 -6.15625,2.25 -6.15625,2.25 -2.7852,1.85254 -5.31241,8.17638 -7.46875,5.3125 l -1.53125,16.78125 -16.25,2 -11.25,-4.125 c 0,0 0.5428,-5.07306 -0.46875,-7.40625 -0.4219,-0.97314 -1.11689,-1.95443 -1.78125,-2.78125 -0.92127,-1.14655 -1.34152,-2.53608 -2.625,-3.40625 -1.32677,-0.89952 -3.25936,-0.44182 -4.75,-1.03125 -1.89684,-0.75005 -3.0299,-2.93172 -5.0625,-3.4375 -2.09823,-0.52211 -6.03605,-0.47729 -10.1875,-1.125 -1.45259,-2.19704 -3.37022,-4.44928 -4.125,-6.8125 -0.63766,-1.99654 -0.39901,-2.76362 -0.6875,-6.25 -0.0829,-1.0022 -1.81647,0.13507 -2.75,0.0625 -2.34442,-0.18225 -3.76111,-1.76285 -5.8125,-3.1875 -1.05441,-0.73227 -2.10226,-1.65348 -3.375,-2.5625 -1.10821,-0.7915 -3.36711,-1.16786 -4.1875,-2.5625 -0.89131,-1.5152 -0.5,-5.875 -0.5,-5.875 l -7.5625,-1.5 -18.75,0.25 -12.75,-5 -12.75,10.75 -3.25,-0.75 -13,14.5 -16.75,-5 -0.875,-26.875 c -3.113629,0.23481 -5.232618,-4.50358 -7.75,-7.25"
       id="path3858"
       inkscape:connector-curvature="0"
       sodipodi:nodetypes="csssscssccccsccsssssscsscsssssssssssscccccssssscsssssscccccccccc" />
    <path
       style="fill:none;stroke:#000000;stroke-width:2;stroke-linecap:butt;stroke-linejoin:round;stroke-miterlimit:4;stroke-opacity:1;stroke-dasharray:none"
       d="m 438.31782,474.89391 c 0,0 0.50922,1.50367 1.06066,2.03293 0.79874,0.76661 2.10456,0.6513 3.18198,0.90598 1.17592,0.27796 3.44714,0.59663 3.44714,0.59663 0,0 2.86239,0.60788 4.28683,0.7955 3.68065,0.48477 7.34432,0.006 11.00436,0.26515 2.51533,0.17788 4.99199,0.82947 7.51301,0.88389 0.79749,0.0172 1.76593,-0.0457 2.56326,-0.0221 2.88217,0.0855 5.69454,0.84192 8.50738,0.66291 0.96986,-0.0617 2.44778,0.20593 3.35876,0.28726 2.93255,0.26181 5.16503,1.40635 7.75607,2.07713 0.82321,0.21312 1.66878,0.34796 2.47487,0.61872 2.0647,0.69351 3.91403,1.97241 6.01041,2.56326 2.72311,0.76748 5.60742,0.76505 8.3969,1.23744 1.39012,0.23541 2.79913,0.40628 4.15425,0.79549 2.03515,0.58452 3.83767,1.43608 5.85573,2.07713 1.15777,0.36777 2.47896,0.64131 3.60182,1.10485 1.96629,0.81173 5.48008,3.27037 5.48008,3.27037 l 9.19239,-5.65685 c 0,0 1.28022,2.84247 2.76592,3.21767 1.77799,0.44901 3.80545,-0.78952 5.16314,-2.02221 1.21282,-1.10116 4.11492,-2.48388 4.5507,-1.08471 1.1324,3.63583 0.4329,3.22748 1.22043,5.98804 0.81799,2.86732 1.94454,5.39169 3.75651,5.61266 1.81196,0.22097 7.12736,-1.76406 8.76615,0.14959 2.56104,2.99058 1.26684,3.97433 2.90203,5.12338 0.81759,0.57453 2.45632,1.87301 3.26791,2.94175 0.81158,1.06875 0.79601,1.90775 1.42999,2.3133 2.28478,1.46155 8.06165,3.4159 10.35975,3.54848 2.29809,0.13258 9.01301,0.51202 10.78077,-0.23928 1.76777,-0.7513 4.08011,-4.8658 5.89207,-5.39613 1.81197,-0.53033 2.82843,-2.43068 3.00521,-2.96101 0.17677,-0.53033 1.19324,-5.56847 2.47487,-6.45235 1.28163,-0.88388 7.82237,0.39775 8.61787,1.06066 0.79549,0.66291 4.64038,5.74524 5.56846,6.18719 0.92808,0.44194 6.76171,2.78423 8.92722,2.65165 2.16552,-0.13259 9.32498,-1.37002 10.73919,-2.16552 1.41421,-0.79549 7.82237,-0.70711 9.67852,-0.83969 1.85616,-0.13258 6.54074,-1.90035 7.73398,-1.06066 1.19325,0.83969 1.81196,3.66812 1.81196,3.66812 0,0 -0.58432,15.6573 0.29955,17.24829 0.88388,1.59099 5.61266,0.53607 7.07107,0.93382 1.45841,0.39775 3.23782,1.3691 5.04978,0.75038 1.81196,-0.61872 2.0039,-2.21193 4.08103,-2.69806 2.07712,-0.48614 3.60691,-0.28033 5.06532,-1.07583 1.45841,-0.7955 2.30882,-1.71507 2.92754,-2.06862 0.61872,-0.35356 1.97579,-2.37094 2.28515,-3.4758 0.30936,-1.10485 0.7415,-3.35469 1.66958,-4.0618 0.92808,-0.70711 7.76188,-1.27066 12.41894,-1.23652 4.43995,0.0326 6.72564,0.68252 9.90762,0.37316 3.18198,-0.30936 6.95679,-1.20971 8.90133,-0.41421 1.94455,0.79549 2.54848,2.79626 2.54848,2.79626"
       id="path3814"
       inkscape:connector-curvature="0"
       sodipodi:nodetypes="csscsssssssssssssccsssssssssssscssssssscssssscsssssc" />
    <path
       style="fill:none;stroke:#000000;stroke-width:2;stroke-linecap:round;stroke-linejoin:round;stroke-miterlimit:4;stroke-opacity:1;stroke-dasharray:none"
       d="m 235.16825,672.03307 c 0,0 -0.23202,0.85074 0.12153,2.88367 0.35355,2.03293 0.61872,6.27557 1.85616,7.95495 1.23743,1.67938 4.06586,4.06586 4.5078,5.39169 0.44194,1.32582 1.32583,4.33103 2.20971,4.33103 0.88388,0 5.56847,0.88388 7.33623,1.14905 1.76777,0.26516 5.12653,1.67937 5.83363,2.12132 0.70711,0.44194 2.56327,0.79549 2.47488,2.03293 -0.0884,1.23744 -0.0884,1.23744 -0.0884,1.23744 0,0 0.17678,3.31456 0.35355,4.37522 0.17678,1.06066 1.06066,3.40295 0.48614,3.18198 -0.57452,-0.22097 -3.75651,-1.23744 -4.64039,-2.07713 -0.88388,-0.83969 -4.64039,-4.19844 -5.56846,-3.62392 -0.92808,0.57452 -3.0494,1.90035 -3.00521,5.83363 0.0442,3.93328 1.06066,6.8059 0.44194,8.83884 -0.61871,2.03293 -1.67938,3.53553 -1.76776,4.94974 -0.0884,1.41422 0.7513,5.52428 1.41421,6.49655 0.66291,0.97227 0.44194,2.38648 0.88388,3.09359 0.44195,0.70711 3.88909,3.71231 4.68459,4.72878 0.79549,1.01646 2.2539,2.03293 2.51906,2.03293 0.26517,0 1.67938,0.57452 2.16552,1.37002 0.48613,0.79549 1.14905,3.27037 1.85615,4.33103 0.70711,1.06066 4.72878,4.99394 5.39169,5.74524 0.66292,0.7513 3.40295,5.08233 4.28684,5.83363 0.88388,0.7513 3.27037,3.44715 3.93328,4.24264 0.66291,0.7955 3.7565,4.46361 4.06586,4.68458 0.30936,0.22097 2.69585,3.8449 3.35876,4.15426 0.66291,0.30935 4.17635,2.85052 3.91118,3.42504 -3.70221,3.69913 -4.7067,2.62959 -5.41378,3.77861 -0.7071,1.14905 -0.91107,2.48292 -0.36872,3.89667 0.72,1.87685 3.29182,4.36227 4.66183,4.1855 1.37002,-0.17678 2.60118,-1.58563 3.13151,-2.51371 0.53033,-0.92808 3.0494,-4.24264 3.88909,-4.28683 0.83969,-0.0442 1.91865,0.24908 2.44898,-0.23705 0.53033,-0.48613 1.95305,-1.1374 3.94179,-0.91643 1.98873,0.22097 6.90945,0.41199 7.48398,-0.60448 0.57452,-1.01646 -3.17285,-4.9387 -3.17976,-5.93182 -0.0197,-2.82905 -0.44194,-5.39169 0.92807,-7.38043 1.37002,-1.98873 3.49134,-4.11005 3.71232,-5.3033 0.22097,-1.19324 -1.59099,-6.27557 -0.88389,-7.5572 0.70711,-1.28163 2.48984,-4.01436 10.20886,-1.94454 2.04639,0.54873 5.06954,4.71805 7.31218,5.51983 3.99847,1.42952 10.36549,-4.54756 14.29877,-4.90112 3.93328,-0.35355 9.32497,-1.10485 11.31371,0.48614 1.98873,1.59099 2.2097,3.44715 4.59619,3.66812 2.38649,0.22097 7.73398,-2.34229 9.45755,-1.98874 1.72358,0.35355 8.04334,0.88388 9.54594,2.20971 1.50261,1.32582 2.3423,3.40295 4.5962,3.7565 2.2539,0.35356 13.03728,-0.26516 14.80505,1.14905 1.76776,1.41421 3.97747,2.96101 5.87782,2.51907 1.90035,-0.44194 2.56326,-1.63519 2.51907,-2.12132 -0.0442,-0.48614 -2.12132,-5.48008 -2.96101,-6.76171 -0.83969,-1.28163 -2.51907,-1.98874 -2.60746,-2.69585 -0.0884,-0.7071 -2.2097,-6.71751 -2.74003,-7.46881 -0.53034,-0.7513 -2.16552,-2.34229 -2.38649,-3.49134 -0.22097,-1.14905 -0.0442,-5.3033 -1.01647,-6.49654 -0.97227,-1.19325 -4.33103,-3.0494 -4.41941,-3.40296 -0.0884,-0.35355 -1.19325,-1.76776 -2.03294,-2.03293 -0.83969,-0.26516 -4.77297,-1.06066 -5.74524,-2.03293 -0.97227,-0.97227 -7.86656,-6.62913 -8.44109,-6.67332 -0.57452,-0.0442 -5.34749,-5.52427 -5.34749,-6.23138 0,-0.7071 -1.14905,-4.72877 -1.85616,-6.14299 -0.7071,-1.41421 -6.27557,-10.16466 -6.67332,-12.8605 -0.39774,-2.69585 -1.54679,-8.26431 -0.17677,-11.84404 1.37002,-3.57973 5.52427,-5.43588 6.85009,-5.12653 1.32583,0.30936 2.69585,0.17678 3.22618,1.90035 0.53033,1.72358 0.35355,2.65165 1.5026,2.51907 1.14905,-0.13258 5.92202,-2.16551 5.96621,-5.08233 0.0442,-2.91681 1.45841,-5.65685 0.57453,-6.58493 -0.88388,-0.92808 -3.0494,-1.59099 -3.18198,-2.60746 -0.13258,-1.01646 -1.06066,-5.03813 0.79549,-5.21491 1.85616,-0.17678 8.88303,3.49134 9.19239,3.09359 0.30936,-0.39774 4.72878,-6.85009 5.03814,-8.13172 0.30936,-1.28164 2.2539,-4.46362 3.09359,-4.41942 0.83969,0.0442 4.64039,0.97227 5.3033,2.20971 0.66291,1.23743 3.31456,7.77817 3.62392,8.22011 0.30936,0.44194 -0.13258,11.35791 0.35356,11.93243 0.48613,0.57452 1.23743,1.90035 3.71231,2.2539 2.47487,0.35356 13.25825,-0.44194 14.98182,1.19325 1.72357,1.63518 -0.66291,4.81716 0.53033,5.2591 1.19324,0.44194 4.19845,-0.17677 4.68458,-0.57452 0.48614,-0.39775 2.16552,-8.04334 2.65165,-8.48528 0.48614,-0.44195 4.11006,-5.78944 4.28684,-6.23138 0.17678,-0.44194 2.69584,-6.18719 3.09359,-6.31977 0.39775,-0.13258 1.45841,-4.86136 0.88388,-5.52427 -0.57452,-0.66291 -8.83883,-3.62392 -10.16466,-3.75651 -1.32582,-0.13258 -10.38563,0.7955 -11.66726,0.35356 -1.28163,-0.44194 -5.78943,-1.81196 -6.89429,-2.12132 -1.10485,-0.30936 -9.23658,-4.11006 -11.3579,-4.86136 -2.12132,-0.7513 -9.23658,-1.41421 -10.25305,-2.65165 -1.01647,-1.23744 -1.06066,-1.28163 -1.06066,-1.28163 0,0 -2.34229,-3.8007 -1.90035,-6.80591 0.44194,-3.0052 1.32583,-6.36396 2.65165,-7.33623 1.32583,-0.97227 9.98788,0.13258 11.13693,-0.61872 1.14905,-0.7513 3.18198,-6.54073 3.66812,-7.5572 0.48614,-1.01647 8.08753,-6.23138 8.08753,-6.62913 0,-0.39774 -0.53033,-2.82842 -0.26516,-3.04939 0.26516,-0.22098 1.63518,-1.63519 1.41421,-3.13779 -0.22097,-1.5026 -2.69584,-8.26431 -4.02167,-9.1482 -1.32582,-0.88388 -8.83883,-3.44714 -9.14819,-4.19844 -0.30936,-0.7513 -0.7513,-2.96101 -0.57453,-4.11006 0.17678,-1.14905 0.57453,-4.50781 0.13259,-5.3033 -0.44195,-0.7955 -2.60746,-3.22618 -3.66812,-3.57973 -1.06066,-0.35355 -6.27557,-2.74004 -8.52948,-2.96101 -2.2539,-0.22097 -6.09879,0.22097 -7.29203,-0.0884 -1.19325,-0.30936 -8.22012,-1.94454 -9.32497,-2.60745 -1.10486,-0.66292 -4.06587,-4.86136 -4.19845,-6.14299 -0.13258,-1.28163 1.10485,-6.71752 1.41421,-7.6456 0.30936,-0.92807 1.5026,-2.78423 0.97227,-3.71231 -0.53033,-0.92807 -3.40295,-2.07712 -4.77297,-2.34229 -1.37002,-0.26516 -3.27037,0.0884 -3.27037,-0.61872 0,-0.7071 6.45235,-6.58493 7.51301,-8.13172 1.06066,-1.5468 3.57973,-8.57367 3.8007,-9.8995 0.22097,-1.32582 1.45841,-2.96101 3.22618,-3.8007 1.76776,-0.83969 4.37522,-2.16551 4.72877,-3.13778 0.35356,-0.97228 1.45841,-5.3033 0.39775,-6.49655 -1.06066,-1.19324 -6.36396,-3.0052 -6.40815,-3.84489 -0.0442,-0.83969 -0.7513,-1.45841 0.79549,-3.8007 1.5468,-2.34229 5.25911,-5.17072 5.17072,-6.31977 -0.0884,-1.14904 -0.26516,-2.78423 -1.5026,-3.93328 -1.23744,-1.14905 -3.35876,-2.2539 -2.96101,-3.09359 0.39775,-0.83969 2.03293,-2.60746 4.99394,-2.78423 2.96101,-0.17678 6.8059,0.26516 7.73398,-0.17678 0.92808,-0.44194 3.13779,-4.552 4.72878,-6.40815 1.59099,-1.85616 5.21491,-4.11006 7.82237,-4.37523 2.60745,-0.26516 4.81716,-0.88388 7.02687,-0.39775 2.20971,0.48614 5.12652,-0.35355 5.39169,0.48614 0.26516,0.83969 -1.67938,4.06586 -0.7513,5.39169 0.92808,1.32582 3.84489,2.12132 5.12652,3.62392 1.28163,1.5026 1.06066,2.03293 2.16552,1.76777 1.10485,-0.26517 7.5572,-3.84489 8.79464,-3.22618 1.23743,0.61872 3.0052,2.60746 3.71231,2.03294 0.7071,-0.57453 2.87262,-5.08233 4.28683,-5.03814 1.41422,0.0442 10.51822,0.57452 11.49049,-0.48614 0.97227,-1.06066 1.54679,-3.09359 1.28163,-4.11005 -0.26517,-1.01647 -1.41421,-2.20971 -1.06066,-3.27037 0.35355,-1.06066 2.03293,-3.0494 2.34229,-3.22618"
       id="path3047"
       inkscape:connector-curvature="0"
       sodipodi:nodetypes="cssssscscsssssscssssssssssccsssscssssssssssssssssscscsssccscsssssssssssssssssssssssssssssscssssscssssssssssssssssssscssssssssscsscscssssc" />
    <path
       style="fill:none;stroke:#000000;stroke-width:2;stroke-linecap:round;stroke-linejoin:round;stroke-miterlimit:4;stroke-opacity:1;stroke-dasharray:none;stroke-dashoffset:0"
       d="m 427,662.43359 c 3.125,-0.125 9.875,0 11.6875,0.6875 1.8125,0.6875 5.375,0.75 6.125,0.5 0.75,-0.25 3.3125,-1.9375 4,-1.5625 0.6875,0.375 2.67518,3.75415 3.55906,4.77061 0.88389,1.01647 4.5962,2.91682 5.43589,4.15426 0.83969,1.23743 3.51186,6.25412 4.21897,6.25412 0.70711,0 2.32621,0.82415 3.65203,-3.72785 1.32583,-4.552 4.06142,-3.1008 5.38725,-5.70825 1.32582,-2.60746 1.25482,-5.45549 4.29626,-5.55238 1.66334,-0.053 4.41627,4.06586 6.53759,4.81716 2.12132,0.7513 6.2251,0.8678 9.40708,0.0723 3.18198,-0.79549 6.65724,-1.21063 9.70663,0.0268 3.0494,1.23744 7.79426,1.78515 9.25267,1.56418 1.45841,-0.22097 1.67938,0.7955 5.21491,0.0884 3.53554,-0.7071 5.65686,-0.74816 9.32497,0.0915 3.66812,0.83969 7.11527,0.483 9.28078,-0.4009 2.16552,-0.88388 4.05292,-1.67087 6.4836,-1.84765 2.43068,-0.17678 7.38579,-1.45711 8.0929,-2.03163 0.7071,-0.57453 2.41237,-0.40885 2.63334,0.56342 0.22097,0.97227 -0.46025,5.08363 -0.85799,6.67462 -0.39775,1.59099 -2.16552,5.03814 -2.2981,6.49654 -0.13258,1.45841 0.35355,4.02167 -0.53033,5.56847 -0.88389,1.5468 -3.57973,5.61266 -3.97748,6.67332 -0.39775,1.06066 -3.88908,4.59619 -4.33103,5.65685 -0.44194,1.06066 -2.03293,2.47488 -1.41421,2.96101 0.61872,0.48614 2.51907,-0.0442 3.27037,-0.57452 0.7513,-0.53033 3.0052,-3.27037 4.5078,-3.49134 1.50261,-0.22097 6.8501,0 8.92723,1.06066 2.07712,1.06066 7.07107,3.0052 8.3085,2.69584 1.23744,-0.30935 2.91682,-2.91681 4.02167,-3.31456 1.10486,-0.39775 3.35876,-0.30936 4.15425,-0.83969 0.7955,-0.53033 2.47488,-2.74004 3.71231,-2.87262 1.23744,-0.13258 3.13779,0.35355 6.01041,0.30936 2.87262,-0.0442 6.71752,-2.74004 8.22012,-2.16551 1.5026,0.57452 4.37522,4.28683 5.74524,4.77297 1.37002,0.48613 10.73919,0.22097 11.97662,0.88388 1.23744,0.66291 3.40295,3.53553 4.64039,4.02167 1.23744,0.48614 2.20971,0.66291 2.20971,0.66291 0,0 4.06586,-7.51301 5.12652,-7.86656 1.06066,-0.35355 5.70105,-0.83969 6.62913,-1.76777 0.92808,-0.92808 2.12132,-4.19844 3.13779,-5.17072 1.01646,-0.97227 5.43588,-4.90555 5.92202,-5.70104 0.48613,-0.7955 3.71231,-5.65686 4.15425,-7.02688 0.44194,-1.37002 1.54679,-7.77817 1.37002,-8.48528 -0.17678,-0.70711 -0.26517,-3.40295 0.17677,-4.11006 0.44195,-0.7071 1.90035,-2.56326 2.12132,-2.65165 0.22098,-0.0884 -0.57452,-0.92808 0.70711,-1.28163 1.28163,-0.35355 5.87783,-0.39775 5.61266,-1.5026 -0.26516,-1.10486 -4.06586,-4.552 -3.66812,-5.56847 0.39775,-1.01646 3.13779,-3.18198 5.52428,-3.31456 2.38648,-0.13258 2.43068,-0.17678 2.20971,-1.14905 -0.22098,-0.97227 -3.13779,-7.64559 -2.82843,-8.3527 0.30936,-0.7071 2.07712,-4.46361 2.03293,-4.90555 -0.0442,-0.44194 -2.2539,-4.46361 -2.34229,-5.70105 -0.0884,-1.23744 -0.26517,-4.81716 0.0884,-5.52427 0.35355,-0.70711 1.06066,-2.07713 0.17677,-1.94454 -0.88388,0.13258 -6.71751,3.18198 -7.91075,2.82842 -1.19325,-0.35355 -4.41942,-3.62392 -5.56847,-4.19844 -1.14905,-0.57453 -1.94454,-0.22097 -1.28163,-1.45841 0.66291,-1.23744 3.84489,-4.86136 3.44715,-6.0546 -0.39775,-1.19325 -1.45841,-2.20971 -2.3423,-2.69585 -0.88388,-0.48613 -3.18049,-1.92948 -3.74299,-2.08573 -0.5625,-0.15625 -0.8125,-1.53125 -2.125,-1.375 -1.3125,0.15625 -5.15625,2.15625 -6.03125,1.4375 -0.875,-0.71875 -4.15625,-5.46875 -4.28125,-6.125 -0.125,-0.65625 -0.40625,-1.6875 -1.1875,-2.34375 -0.78125,-0.65625 -2.375,-1.5625 -2.375,-1.5625 l 28.0625,-34.375 c 0,0 -1.1875,-2.71875 -0.59375,-5.46875 0.59375,-2.75 0.8125,-6.5 2.34375,-7.125 1.53125,-0.625 8.1875,-2.4375 8.75,-3.09375 0.5625,-0.65625 1.25,-1.5625 2.09375,-1.71875 0.84375,-0.15625 3.25,0.5 4.03125,-0.15625 0.78125,-0.65625 0.40625,-4.21875 1.53125,-5.1875 1.125,-0.96875 7.1875,-2.15625 7.71875,-2.75 0.53125,-0.59375 3.875,-1.875 4.15625,-3 0.28125,-1.125 -0.15625,-4.53125 0.625,-5.53125 0.78125,-1 1.76563,-1.375 1.76563,-1.375"
       id="path3049"
       inkscape:connector-curvature="0"
       sodipodi:nodetypes="cssssssssssssssssscssssssssssssssssssscssscscccsccssscscsssssssssssccsssssssssc" />
    <path
       style="fill:none;stroke:#000000;stroke-width:2;stroke-linecap:round;stroke-linejoin:round;stroke-miterlimit:4;stroke-opacity:1;stroke-dasharray:none"
       d="m 625.96628,690.16373 c 7.20365,1.67938 9.14819,2.16551 10.38563,1.54679 1.23744,-0.61871 5.65685,-4.68458 7.11526,-4.72877 1.45841,-0.0442 5.96621,1.19324 7.38043,0.83969 1.41421,-0.35356 7.15945,-3.31457 8.57367,-3.57973 1.41421,-0.26517 4.06586,0.22097 6.0546,-0.30936 1.98874,-0.53033 6.8059,-2.82843 7.07107,-3.18198 0.26516,-0.35355 8.13173,-5.83363 9.67852,-8.04334 1.5468,-2.20971 2.34229,-5.03814 3.88909,-6.27557 1.54679,-1.23744 2.60746,-2.03294 4.86136,-1.98874 2.2539,0.0442 7.95495,0.61872 9.0598,0.13258 1.10486,-0.48613 2.82843,-1.90035 3.00521,-3.0052 0.17677,-1.10486 0.17677,-3.66812 1.01646,-4.06587 0.83969,-0.39774 2.43068,-0.7513 3.66812,-0.0442 1.23744,0.70711 4.94975,2.51907 5.34749,3.22617 0.39775,0.70711 1.41422,1.94455 2.2981,1.67938 0.88389,-0.26516 2.47488,-0.83969 3.0494,-1.5026 0.57452,-0.66291 0.57452,-1.59099 1.45841,-1.28163 0.88388,0.30936 3.53553,4.86136 4.24264,5.25911 0.70711,0.39774 1.06066,1.37002 2.20971,0.13258 1.14905,-1.23744 1.06066,-1.90035 1.67938,-1.76777 0.61871,0.13258 2.2539,3.27037 2.29809,5.39169 0.0442,2.12132 1.5026,9.63433 0.35356,10.34144 -1.14905,0.7071 -6.93849,3.49134 -7.73398,4.37522 -0.7955,0.88388 -2.78424,2.03293 -2.16552,3.0494 0.61872,1.01647 1.67938,1.76777 3.0052,2.2539 1.32583,0.48614 2.12133,0.83969 2.56327,2.69585 0.44194,1.85615 1.14905,5.74524 1.54679,6.67332 0.39775,0.92807 1.06066,1.76776 0.53033,2.96101 -0.53033,1.19324 -2.29809,4.11005 -1.90035,5.43588 0.39775,1.32583 1.19325,2.47487 2.12132,2.96101 0.92808,0.48614 3.40296,0.57452 3.97748,1.28163 0.57452,0.70711 2.51907,3.62392 2.51907,3.62392"
       id="path3819"
       inkscape:connector-curvature="0" />
    <path
       style="fill:none;stroke:#000000;stroke-width:2;stroke-linecap:round;stroke-linejoin:round;stroke-miterlimit:4;stroke-opacity:1;stroke-dasharray:none"
       d="m 397.375,758.37109 c 3.5625,1.75 6,3.3125 8.4375,3.25 2.4375,-0.0625 8.1875,-0.5625 9.1875,-1 1,-0.4375 7.0625,-2.6875 8.3125,-3.1875 1.25,-0.5 2.1875,-1.6875 3.5625,-1.6875 1.375,0 8.875,1.125 10.5625,0.5625 1.6875,-0.5625 4,-2.5625 4.375,-3.3125 0.375,-0.75 1.75,-3.1875 2.5625,-3.25 0.8125,-0.0625 2.1875,0.75 2.5,1.4375 0.3125,0.6875 2.375,5.9375 2.75,6.5 0.375,0.5625 1.3125,4.25 1.3125,4.25 0,0 6.375,-1.25 7.4375,-1.1875 1.0625,0.0625 2.375,-0.875 3.5,-0.875 1.125,0 10.0625,-1.1875 10.0625,-1.1875 0,0 -0.8125,-1.75 -1.4375,-2.3125 -0.625,-0.5625 -1.875,-2.375 -1.6875,-3.3125 0.1875,-0.9375 2.71875,-3.46875 3.875,-4.59375 1.05721,-1.02864 4,-4.34375 5.1875,-5.03125 1.1875,-0.6875 2.6875,-1.5 4.0625,-2.8125 1.375,-1.3125 3.34375,-2.9375 4.28125,-3.6875 0.66381,-0.53105 6.78125,-5.15625 8.21875,-6.40625 1.4375,-1.25 4.40625,-4.09375 5.6875,-5.34375 1.243,-1.21268 7.8125,-4.9375 10.125,-5.75 2.3125,-0.8125 5.75,-4.4375 6.8125,-4.9375 1.0625,-0.5 4.09375,-2.71875 5.03125,-3.21875 0.9375,-0.5 3.59375,-3.21875 5.09375,-4.09375 1.5,-0.875 2.40625,-1.84375 4.1875,-3.1875 1.76405,-1.33077 4,-2.1875 7.1875,-3.25 1.62812,-0.54271 2.64063,-2.07813 2.64063,-2.07813"
       id="path3821"
       inkscape:connector-curvature="0"
       sodipodi:nodetypes="cssssssssscsscssssssssssssssc" />
    <path
       style="fill:none;stroke:#000000;stroke-width:2;stroke-linecap:butt;stroke-linejoin:miter;stroke-miterlimit:4;stroke-opacity:1;stroke-dasharray:none"
       d="m 450.95735,761.7141 c -3.0052,1.23743 -3.71231,1.59099 -3.18198,3.18198 0.53033,1.59099 1.76777,3.44714 3.71231,4.15425 1.94454,0.70711 6.54074,1.94454 8.83883,1.67938 2.2981,-0.26517 3.53554,-1.23744 3.97748,0 0.44194,1.23743 1.23744,3.62392 1.23744,3.62392 0,0 0.97227,-0.17678 1.06066,0.0884 0.0884,0.26516 0,2.29809 -1.67938,3.97747 -1.67938,1.67938 -6.0988,5.74525 -5.3033,7.77818 0.79549,2.03293 1.06066,3.44714 2.20971,4.33103 1.14904,0.88388 2.47487,1.5026 3.09359,2.65165 0.61872,1.14905 2.01479,4.31574 2.63979,4.69074 0.625,0.375 2.375,1.5625 3.25,2.25 0.875,0.6875 2.3125,2.8125 4.4375,3.5625 2.125,0.75 5.3125,1.625 7.5625,1.875 2.25,0.25 5,0.75 6.5625,1.8125 1.5625,1.0625 3.5625,3.3125 5.4375,3.625 1.875,0.3125 3.6875,-0.375 4,-2 0.3125,-1.625 0.6875,-6.0625 1.25,-6.25 0.5625,-0.1875 10.25,-2.4375 12.3125,-2.5 2.0625,-0.0625 8.625,-0.6875 9.5,-1.1875 0.875,-0.5 5.0625,-3.9375 5.6875,-4.8125 0.625,-0.875 2.625,-3.0625 4.5625,-3.9375 1.9375,-0.875 4.875,-1.125 5.9375,-2 1.0625,-0.875 2.5,-2.5 4.375,-3.5 1.875,-1 2,-0.8125 3.25,-2.25 1.25,-1.4375 2.375,-5.1875 3.5,-6.3125 1.125,-1.125 5,-3.6875 6.3125,-5.6875 1.3125,-2 2.4375,-4.5625 4.25,-5.625 1.8125,-1.0625 4.25,-2.75 5.625,-3.3125 1.375,-0.5625 2.1875,-1.75 3.8125,-1.375 1.625,0.375 3.8125,2.25 3.8125,2.25 0,0 1.3125,-2.8125 2.3125,-3.5 1,-0.6875 3.4375,-1.875 4.4375,-2.5 1,-0.625 3.125,-4.34375 3.75,-6.03125 0.36966,-0.99808 1,-2.625 0.25,-3.65625 -0.62493,-0.85928 -2.5,-0.6875 -3.5625,-1.5625 -1.0625,-0.875 -2.46875,-2.65625 -2.96875,-3.90625 -0.5,-1.25 -0.90625,-3.59375 -1.46875,-5.40625 -0.5625,-1.8125 -2.25,-5.0625 -2.6875,-5.75 -0.4375,-0.6875 -1.4375,-2.375 -1.5625,-3.0625 -0.125,-0.6875 -0.6875,-1.8125 0,-1.9375 0.6875,-0.125 4.375,1.1875 5.0625,1.375 0.6875,0.1875 3.625,0.71875 4.375,0.53125 0.75,-0.1875 3.5,-0.65625 4.4375,-0.59375 0.9375,0.0625 3,0.0625 3.5,-0.0625 0.5,-0.125 1.125,-0.3125 0.1875,-1.25 -0.9375,-0.9375 -2.46875,-3.0625 -2.84375,-3.5 -0.375,-0.4375 -2.21875,-2.90625 -3.96875,-3.71875 -1.75,-0.8125 -4.90625,-2.46875 -5.78125,-3.65625 -0.875,-1.1875 -1.90625,-3.5 -2.71875,-4.53125 -0.69192,-0.87821 -1.78125,-2.75 -2.84375,-3.5625 -1.0625,-0.8125 -6.34375,-8.34375 -6.34375,-8.34375"
       id="path3823"
       inkscape:connector-curvature="0"
       sodipodi:nodetypes="cssssccsssssssssssssssssssssssscssssssssssssssssssssc" />
    <path
       style="fill:none;stroke:#000000;stroke-width:2;stroke-linecap:butt;stroke-linejoin:miter;stroke-miterlimit:4;stroke-opacity:1;stroke-dasharray:none"
       d="m 573.19843,762.4212 c -2.03293,4.50781 -2.82842,8.66206 -2.65165,9.104 0.17678,0.44194 -0.26516,0.88389 0.53033,1.14905 0.7955,0.26517 9.28078,1.14905 9.98789,1.85616 0.7071,0.7071 4.77297,4.5078 5.3033,7.07106 0.53033,2.56327 2.91681,8.75045 3.53553,9.54595 0.61872,0.79549 1.67938,2.12132 3.44715,2.47487 1.76776,0.35355 8.75044,0.26516 9.8111,-0.61872 1.06066,-0.88388 4.77297,-4.41942 5.30331,-6.18718 0.53033,-1.76777 0.53033,-7.86657 0.26516,-9.19239 -0.26516,-1.32583 -1.85616,-6.18719 -1.67938,-6.98268 0.17678,-0.7955 0.35355,-2.91682 1.85616,-3.8007 1.5026,-0.88388 3.88908,-2.56326 4.94974,-3.88909 1.06066,-1.32582 3.8007,-3.88908 4.94975,-3.97747 1.14905,-0.0884 1.98874,0.0442 5.12653,1.90035 3.13778,1.85615 4.59619,2.2539 6.23137,2.69584 1.63519,0.44194 6.27558,2.2539 7.38043,2.34229 1.10486,0.0884 2.78423,0.35356 4.77297,-0.0884 1.98874,-0.44194 6.58493,-2.12132 7.86657,-2.16551 1.28163,-0.0442 4.28683,-0.35355 6.18718,-1.14905 1.90035,-0.79549 2.96101,-1.45841 3.8007,-2.74004 0.83969,-1.28163 1.5026,-4.5078 1.76777,-4.99394 0.26516,-0.48614 0.88388,-1.94454 1.90035,-2.16551 1.01646,-0.22098 3.13778,-0.61872 4.5078,0.13258 1.37002,0.7513 2.47487,1.67938 3.71231,1.81196 1.23744,0.13258 7.77818,0 8.70625,-0.17678 0.92808,-0.17677 2.47488,-0.53033 3.18198,-0.13258 0.70711,0.39775 4.28684,1.90035 5.12653,1.76777 0.83969,-0.13259 2.78423,-0.30936 4.15425,-1.14905 1.37002,-0.83969 3.22618,-2.34229 4.06586,-2.56326 0.83969,-0.22097 1.76777,-0.92808 2.47488,-0.53033 0.70711,0.39774 2.65165,2.60745 3.62392,2.91681 0.97227,0.30936 1.67938,1.28163 3.53553,0.97227 1.85616,-0.30936 3.97748,-1.14904 4.41942,-1.54679 0.44194,-0.39775 1.5026,-1.5026 2.20971,-2.51907 0.70711,-1.01647 1.85616,-2.2539 2.12132,-2.51907 0.26517,-0.26516 1.59099,-3.13778 2.2981,-4.11006 0.7071,-0.97227 1.28163,-3.04939 3.22617,-3.18198 1.94455,-0.13258 3.35876,0.39775 4.24264,1.45841 0.88389,1.06066 3.00521,3.22618 3.00521,3.66812"
       id="path3825"
       inkscape:connector-curvature="0" />
    <path
       style="fill:none;stroke:#000000;stroke-width:2;stroke-linecap:butt;stroke-linejoin:miter;stroke-miterlimit:4;stroke-opacity:1;stroke-dasharray:none"
       d="m 37.211494,853.19604 c 2.563262,-0.44195 5.214913,-2.96102 6.629127,-4.72878 1.414213,-1.76777 2.474873,-3.53553 3.005203,-4.33103 0.53033,-0.79549 4.065864,0.83969 6.187185,1.28163 2.12132,0.44194 2.563261,0.7071 3.18198,-0.0884 0.618718,-0.7955 2.165515,-5.21491 3.668117,-6.54074 1.502602,-1.32582 3.402951,-1.06066 4.463611,-2.2097 1.06066,-1.14905 1.679379,-4.33104 1.325825,-5.12653 -0.353553,-0.7955 -4.167693,-3.31764 -5.797542,-5.39391 -0.501033,-0.63827 -0.5,-1.125 -1.1875,-2.125 -0.6875,-1 -4.850413,-3.67364 -5.662913,-4.92364 -0.8125,-1.25 -2.337087,-2.13886 -1.462087,-4.95136 0.875,-2.8125 3.6875,-5.9375 4.875,-6.875 1.1875,-0.9375 2.388611,-2.4146 2.904029,-3.07008 0.673636,-0.8567 1.144607,-0.90403 2.519607,-1.52903 1.375,-0.625 4.576364,-0.96339 6.263864,-1.83839 1.6875,-0.875 3.8125,-3.5 5.0625,-3.875 1.25,-0.375 3.923636,-1.07636 5.611136,-0.76386 1.6875,0.3125 6.482148,0.53826 7.915672,0.75406 1.453125,0.21875 3.218275,0.21995 6.645067,-2.06833 2.273247,-1.51798 3.90625,-2.40624 5.59375,-1.84374 1.687505,0.5625 4.233075,2.37323 5.108075,3.31073 0.875,0.9375 3.85983,2.20581 5.10983,2.26831 1.25,0.0625 3.99058,0.49058 5.05308,0.80308 1.0625,0.3125 3.02589,0.16475 4.71339,-0.83525 1.6875,-1 4.1875,-3.875 4.75,-4.1875 0.5625,-0.3125 2.45581,-2.86114 2.70581,-3.86114 0.25,-1 0.12186,-6.76018 0.80936,-8.44768 0.6875,-1.6875 1.60095,-2.72151 3.12814,-5.11482 1.36234,-2.13496 2.29419,-8.32636 3.16919,-9.57636 0.875,-1.25 1.625,-6.0625 2.6875,-7.25 1.0625,-1.1875 3.58318,-3.52957 5.58318,-4.65457 2,-1.125 5.41682,-1.65793 5.35432,-4.28293 -0.0625,-2.625 -1.125,-4.875 -0.25,-6.1875 0.875,-1.3125 5.9375,-5.4375 6.25,-6.4375 0.3125,-1 1.25,-5.875 1.125,-8.3125 -0.125,-2.4375 0.25,-4.875 1.5,-6.5625 1.25,-1.6875 3.5,-5.4375 2.9375,-6.75 -0.5625,-1.3125 -4.1875,-4.875 -5.125,-6.0625 -0.9375,-1.1875 -3.33511,-2.62268 -4.03347,-4.51647 -0.89475,-2.42635 -0.45136,-6.31878 0.17364,-7.75628 0.625,-1.4375 2.79733,-2.10225 5.10983,-3.16475 2.3125,-1.0625 9.125,-3.125 11.1875,-4.375 2.0625,-1.25 3.46653,-1.78347 4.27903,-3.22097 0.8125,-1.4375 2.75703,-3.06729 3.88388,-4.49242 1.27145,-1.60799 3.02459,-1.91161 4.08709,-3.84911 1.0625,-1.9375 1.1875,-2.375 1.1875,-2.375"
       id="path3827"
       inkscape:connector-curvature="0"
       sodipodi:nodetypes="cssssssssssssssssssssssssssssssssssssssassssssc" />
    <path
       style="fill:none;stroke:#000000;stroke-width:2;stroke-linecap:butt;stroke-linejoin:miter;stroke-miterlimit:4;stroke-opacity:1;stroke-dasharray:none"
       d="m 65.683384,833.20883 c 1.738951,-0.27112 1.750325,-0.6237 3.254116,0.47476 1.714473,1.25236 4.551777,4.52903 6.176777,5.09153 1.625,0.5625 3.842606,1.2518 5.8125,1.6875 2.030505,0.4491 4.114885,0.60695 6.166053,0.94952 2.474502,0.41328 6.15717,1.33395 7.40717,1.33395 1.25,0 3.74316,0.0875 4.504442,0.39775 2.801238,1.14146 4.768308,4.26386 5.455808,4.38886 0.6875,0.125 9.10225,-0.66161 9.85225,-0.22411 0.75,0.4375 4.5625,1.75 5.5,1.25 0.9375,-0.5 4.5625,-3.5625 5.25,-4.8125 0.6875,-1.25 4.25,-7.9375 4.375,-8.5 0.125,-0.5625 -0.75,-6.125 -0.4375,-7.125 0.3125,-1 1.9375,-3.4375 3.25,-4.5625 1.3125,-1.125 3.5625,-4.5 3.625,-5.0625 0.0625,-0.5625 0.62124,-3.62708 0.80492,-5.45634 0.15987,-1.59219 -0.55492,-4.29366 0.25758,-4.79366 0.8125,-0.5 3.75,-0.6875 4.8125,-0.4375 1.0625,0.25 2.6875,1 2.9375,0.625 0.25,-0.375 4.8125,-7.5 5.4375,-8 0.625,-0.5 2.25,-2.625 2.9375,-2.8125 0.6875,-0.1875 3.125,0.375 3.4375,0.8125 0.3125,0.4375 1.3125,1.875 0.6875,3.375 -0.625,1.5 -3.5625,5.875 -4.4375,6.9375 -0.875,1.0625 -1.75,2.4375 -1.625,3.0625 0.125,0.625 0.4375,1.625 1.1875,1.625 0.75,0 2.32291,-0.54264 2.80905,-0.41006 0.48614,0.13258 1.76777,2.2981 1.90035,3.84489 0.13258,1.5468 0.39775,5.17072 0.83969,5.74525 0.44194,0.57452 0.92808,1.67938 1.81196,0.66291 0.88388,-1.01647 2.69584,-4.94975 2.74004,-5.25911 0.0442,-0.30936 0.92808,-3.84489 1.41421,-4.46361 0.48614,-0.61872 1.23744,-1.81196 1.85616,-1.72357 0.61872,0.0884 1.10404,0.85364 1.5026,1.41421 0.79477,1.11788 1.01647,3.44715 1.67938,3.75651 0.66291,0.30936 1.90035,0.53033 2.91681,-0.0442 1.01647,-0.57452 3.49135,-4.64038 4.33104,-5.48007 0.83968,-0.83969 4.41941,-1.59099 5.92201,-2.69585 1.5026,-1.10485 1.92665,-1.76106 3.09359,-2.29809 2.59389,-1.19373 8.13173,-1.67938 8.3527,-1.90036 0.22097,-0.22097 4.552,-8.97141 5.08233,-9.36916 0.53033,-0.39775 9.63433,-8.22012 9.94369,-8.61786 0.30936,-0.39775 0.86895,-4.00123 1.98874,-5.65685 1.15217,-1.7035 3.88909,-2.60747 4.64039,-4.06587 0.7513,-1.45841 1.10485,-2.78424 1.41421,-3.71231 0.30936,-0.92808 0.13259,-1.94455 -0.79549,-3.13779 -0.92808,-1.19325 -4.1484,-3.93175 -5.74524,-6.27557 -1.68041,-2.46649 -2.65166,-7.33624 -3.93329,-8.04334 -1.28163,-0.70711 -3.84489,-0.61871 -12.81631,0.13258 -0.97227,-0.26516 -2.69584,-0.7513 -2.87262,-1.63518 -0.17677,-0.88388 -0.16525,-0.83126 -0.17678,-1.14906 -0.0666,-1.83454 1.10486,-4.55199 0.97228,-5.17071 -0.13259,-0.61872 -0.30936,-2.03293 -1.59099,-2.38649 -1.28164,-0.35355 -6.54074,-0.26516 -6.67332,-0.88388 -0.13259,-0.61872 1.01646,-4.41942 2.16551,-6.58493 1.14905,-2.16552 1.94454,-3.00521 1.59099,-4.90555 -0.35355,-1.90035 -1.90035,-5.21492 -1.67938,-7.15946 0.22097,-1.94454 -0.0442,-13.78858 -0.26516,-14.98183 -0.22097,-1.19324 -1.41422,-6.18718 -1.32583,-7.38042 0.0884,-1.19325 -0.13258,-2.51907 1.45841,-3.93328 0,0 1.81196,-1.72358 4.37522,-2.74004 2.56326,-1.01647 4.15425,-2.12132 4.15425,-2.12132"
       id="path3829"
       inkscape:connector-curvature="0"
       sodipodi:nodetypes="cssaassssssssssasssssssssssssssscascssacssasssasccscscssssscsc" />
    <path
       style="fill:none;stroke:#000000;stroke-width:2;stroke-linecap:butt;stroke-linejoin:miter;stroke-miterlimit:4;stroke-opacity:1;stroke-dasharray:none"
       d="m 216.8125,771.24609 c 4.8125,-3.5 8.5,-5.75 10.1875,-6.9375 1.6875,-1.1875 3.13388,-3.82008 5.19638,-4.50758 2.0625,-0.6875 4.34153,-0.29604 5.34153,0.76646 1,1.0625 2.30178,2.15587 3.12056,2.72595 1.23314,0.85859 3.03661,1.40089 4.47411,1.02589 1.4375,-0.375 1.86428,-1.13886 2.61428,-0.38886 0.75,0.75 1.53217,2.9987 2.66161,3.51386 0.66558,0.30359 3.96653,-0.38572 5.84153,-1.51072 1.875,-1.125 3.1875,-1.3125 3.625,-1.8125 0.4375,-0.5 3.375,-5.9375 4,-6.5625 0.625,-0.625 4.9375,-3.3125 4.9375,-3.3125"
       id="path3831"
       inkscape:connector-curvature="0"
       sodipodi:nodetypes="cssssssssssc" />
    <path
       style="fill:none;stroke:#000000;stroke-width:2;stroke-linecap:butt;stroke-linejoin:miter;stroke-miterlimit:4;stroke-opacity:1;stroke-dasharray:none"
       d="m 196.04536,800.07464 c 1.10485,0.11049 1.34792,6.20928 2.05503,7.88866 0.70711,1.67938 1.65728,1.78986 1.4805,3.64602 -0.17678,1.85616 -0.90598,3.07149 -1.78986,4.30893 -0.88389,1.23744 -3.27612,3.68406 -2.85053,4.83926 0.15468,0.41985 0.26515,1.28163 2.14342,2.3423 2.07233,1.17026 4.79507,2.16551 6.0325,2.16551 1.23744,0 3.44715,-0.70711 4.33103,-1.67938 0.88389,-0.97227 3.46925,-4.04377 4.70668,-4.68459 1.12378,-0.58196 1.56889,-0.79549 3.0715,-0.88388 1.5026,-0.0884 6.18718,0 8.3085,-0.26516 2.12132,-0.26517 8.06544,-2.40858 9.03771,-2.2318 0.97227,0.17677 3.69021,3.29246 4.5741,5.06023 0.88388,1.76776 1.23743,2.2097 2.03293,2.65165 0.79549,0.44194 3.0273,2.2097 3.97748,3.57972 1.29531,1.86766 2.28817,8.86803 3.88908,13.08148 0.31135,0.81946 1.51172,1.16168 2.38649,1.10485 1.9821,-0.12876 4.06586,-1.94454 5.03813,-3.18198 0.97227,-1.23743 2.66908,-2.42116 4.35313,-2.67374 3.46408,-0.51956 8.48528,-0.0663 9.94369,0.59662 1.40757,0.63981 5.3475,2.47487 6.67332,3.27036 1.32583,0.7955 4.5741,4.11006 5.01604,4.99395 0.44194,0.88388 1.369,1.34919 1.94454,-0.50824 0.48613,-1.56889 0.55818,-6.63439 0.15794,-9.33013 -0.16838,-1.13406 -0.87915,-4.47056 -1.01505,-6.04431 -0.24107,-2.79159 -0.33635,-6.24999 -0.31955,-7.11416 0.0435,-2.23992 1.42563,-4.81998 2.48549,-6.67926 0.74257,-1.30268 3.71675,-3.60797 4.84976,-7.18317 0.40363,-1.27367 0.5391,-3.44497 0.56878,-4.90901 0.0204,-1.00758 1.54734,-4.68241 1.6471,-6.6471 0.0578,-1.13905 -1.68685,-6.13768 -1.18685,-7.82518 0.5,-1.6875 2.09444,-2.60693 2.92298,-4.16475 0.86428,-1.625 2.42613,-6.41475 3.48863,-7.60225 l 0.875,-1.1875"
       id="path3833"
       inkscape:connector-curvature="0"
       sodipodi:nodetypes="csssssssssssssssassssssssssssssscc" />
    <path
       style="fill:none;stroke:#000000;stroke-width:2;stroke-linecap:butt;stroke-linejoin:miter;stroke-miterlimit:4;stroke-opacity:1;stroke-dasharray:none"
       d="m 280.36784,843.73848 c -0.88388,5.3033 -2.47488,9.19239 -0.88388,12.19759 1.59099,3.00521 4.24264,2.65165 5.48007,4.24265 1.23744,1.59099 3.00521,3.71231 3.00521,5.3033 0,1.59099 -0.7955,1.94454 0.35355,2.43068 1.14905,0.48613 5.08233,2.12132 6.14299,1.94454 1.06066,-0.17678 3.35876,-2.78423 4.41942,-3.0052 1.06066,-0.22098 1.41421,-0.70711 1.63518,0 0.22097,0.7071 0.30936,1.23743 0.70711,1.06066 0.39775,-0.17678 2.20971,1.14904 2.91681,1.4584 0.70711,0.30936 2.96101,-0.92807 4.11006,-2.16551 1.14905,-1.23744 2.82843,-3.71231 3.35876,-3.57973 0.53033,0.13258 1.45841,2.96101 1.85616,4.15425 0.39774,1.19325 1.98873,5.25911 2.03293,6.40816 0.0442,1.14905 -0.26517,3.40295 0.0884,3.88909 0.35355,0.48613 0.7071,0.92807 1.28163,0.53033 0.57452,-0.39775 3.71231,-4.11006 3.97747,-4.81717 0.26517,-0.70711 0.88389,-3.57973 1.45841,-4.24264 0.57452,-0.66291 4.11006,-3.57973 5.21491,-4.02167 1.10486,-0.44194 3.31457,-2.34229 3.57973,-2.82843 0.26517,-0.48613 2.2539,-4.81716 2.82843,-5.39169 0.57452,-0.57452 2.29809,-2.03293 2.65165,-2.87262 0.35355,-0.83969 0.79549,-2.91681 0.79549,-3.93328 0,-1.01647 -0.13258,-2.82843 0.44194,-4.02167 0.57453,-1.19324 2.16552,-3.8007 2.65166,-4.64039 0.48613,-0.83969 2.34229,-4.5078 3.13778,-5.34749 0.7955,-0.83969 3.44715,-2.20971 4.68458,-2.56326 1.23744,-0.35356 3.66812,-1.06066 4.552,-1.98874 0.88389,-0.92808 2.12132,-3.8449 2.47488,-5.21491 0.35355,-1.37002 0.66291,-3.57973 1.32582,-4.33103 0.66292,-0.7513 2.82843,-3.71231 3.53554,-4.19845 0.7071,-0.48614 2.47487,-2.20971 2.87262,-3.0494 0.39775,-0.83969 0.88388,-4.11006 0.7513,-4.86136 -0.13258,-0.7513 -0.53033,-3.53553 -0.83969,-4.59619 -0.30936,-1.06066 -1.32583,-4.5962 -0.66291,-5.92202 0.66291,-1.32583 1.19324,-2.20971 2.34229,-2.47487 1.14905,-0.26517 1.01646,0.35355 1.5026,-0.48614 0.48614,-0.83969 2.2981,-4.19845 3.22617,-4.77297 0.92808,-0.57453 4.15426,-3.44715 4.99395,-3.75651 0.83969,-0.30936 4.11005,-2.96101 4.41941,-3.80069 0.30936,-0.83969 0.88389,-3.13779 0.7513,-5.30331 -0.13258,-2.16551 -0.22097,-5.83363 0.30936,-6.7617 0.53033,-0.92808 1.81197,-2.91682 2.69585,-3.40296 0.88388,-0.48613 5.08233,-3.40295 5.74524,-3.57972 0.66291,-0.17678 3.75651,-3.71231 4.06587,-4.11006 0.30935,-0.39775 2.65165,-2.87262 2.65165,-2.87262"
       id="path3835"
       inkscape:connector-curvature="0" />
    <path
       style="fill:none;stroke:#000000;stroke-width:2;stroke-linecap:round;stroke-linejoin:miter;stroke-miterlimit:4;stroke-opacity:1;stroke-dasharray:none"
       d="m 336.4375,854.80859 c 0,0 2,0.3125 2.8125,0.6875 0.8125,0.375 2,0.5625 2.75,1.6875 0.75,1.125 1.4375,3.1875 2.25,3.8125 0.8125,0.625 2.875,3.1875 3.3125,4.1875 0.4375,1 1.5,3.3125 1.875,4.375 0.375,1.0625 1.6875,7.5 2.125,7.9375 0.4375,0.4375 1.6875,-1 2.125,-1.9375 0.4375,-0.9375 0.9375,-3.375 1.875,-4.0625 0.9375,-0.6875 3.75,-4.125 4.875,-4.8125 1.125,-0.6875 4,-3.125 4.5625,-3.6875 0.5625,-0.5625 2.4375,-1.5 3.0625,-1.375 0.625,0.125 1.6875,1.25 1.9375,2.125 0.25,0.875 0.625,2.8125 1.3125,3.1875 0.6875,0.375 3.0625,0.0625 4.625,-0.6875 1.5625,-0.75 9.5,-4.3125 9.625,-4.625 0.125,-0.3125 -0.1875,-3.8125 -0.375,-4.625 -0.1875,-0.8125 -1.375,-5.875 -1.0625,-7.1875 0.3125,-1.3125 1.4375,-3.875 2.25,-5 0.8125,-1.125 1.9375,-2.9375 1.8125,-3.9375 -0.125,-1 -1.3125,-5.8125 -1.5,-6.5625 -0.1875,-0.75 -0.8125,-3.6875 -0.5,-4.0625 0.3125,-0.375 0.5625,-0.25 1.125,0.3125 0.5625,0.5625 2.3125,2.125 3.1875,2.6875 0.875,0.5625 1.6875,1.3125 2.875,1.3125 1.1875,0 2.0625,-0.71875 2.375,-1.09375 0.3125,-0.375 2.15625,-1.34375 2.3125,-1.78125 0.15625,-0.4375 0.0312,-1.96875 -0.59375,-2.6875 -0.625,-0.71875 -2.34375,-1.90625 -2.78125,-3.03125 -0.4375,-1.125 -1.46875,-3.875 -1.78125,-5.09375 -0.3125,-1.21875 -0.5625,-4.28125 -0.75,-5.5 -0.1875,-1.21875 -0.375,-3.78125 -0.875,-4.40625 -0.5,-0.625 -0.625,-0.84375 -2,-1.03125 -1.375,-0.1875 -2.65625,-0.0625 -3.09375,-0.6875 -0.4375,-0.625 0,-2.5 -0.5,-3.65625 -0.5,-1.15625 -1.625,-3.0625 -2.59375,-3.65625 -0.96875,-0.59375 -0.875,-1.125 -2.21875,-0.53125 -1.34375,0.59375 -4.03125,2.09375 -5.65625,1.875 -1.625,-0.21875 -2.125,-0.0625 -2.5625,-1.15625 -0.4375,-1.09375 -0.4375,-2.1875 -1.3125,-2.75 -0.875,-0.5625 -3.5625,-1.625 -4.28125,-1.78125 -0.71875,-0.15625 -1.99219,-0.34375 -1.99219,-0.34375"
       id="path3837"
       inkscape:connector-curvature="0"
       sodipodi:nodetypes="csssssssssssssssssssssssssscsssssssssssssc" />
    <path
       style="fill:none;stroke:#000000;stroke-width:2;stroke-linecap:butt;stroke-linejoin:miter;stroke-miterlimit:4;stroke-opacity:1;stroke-dasharray:none"
       d="m 385.875,858.55859 c 3,2.875 3.375,2.25 5,3.875 1.625,1.625 2.01121,1.10388 2.45315,2.56229 0.44194,1.45841 0.35355,2.43068 1.32582,3.09359 0.97227,0.66291 2.91682,1.5026 4.19845,1.45841 1.28163,-0.0442 3.40295,-0.92808 4.02167,-0.7513 0.61872,0.17678 1.59099,0.39775 1.72357,1.23744 0.13258,0.83968 -0.13258,1.72357 0.17678,2.34229 0.30936,0.61872 0.61872,1.06066 0.0442,2.29809 -0.57452,1.23744 -2.91681,5.3475 -3.71231,6.58494 -0.79549,1.23743 -2.69584,4.02167 -3.27037,4.86135 -0.57452,0.83969 -1.94454,4.06587 -1.72357,4.68459 0.22097,0.61872 0.70711,2.82842 1.59099,4.02167 0.88388,1.19324 2.16551,2.20971 2.43068,3.18198 0.26516,0.97227 0.7513,2.82842 1.63518,3.8007 0.88389,0.97227 2.12132,2.07712 2.56327,3.13778 0.44194,1.06066 0.97227,2.47488 0.79549,3.8007 -0.17678,1.32583 -1.32582,3.97748 -1.19324,4.77297 0.13258,0.7955 -0.0442,1.32583 0.61872,1.63519 0.66291,0.30936 2.78423,-0.92808 2.96101,-1.37002 0.17677,-0.44194 4.77297,-5.56847 5.3033,-6.01041 0.53033,-0.44194 6.8059,-5.48008 7.42462,-5.83363 0.61872,-0.35355 10.12046,-4.59619 10.73918,-4.94975 0.61872,-0.35355 3.88909,-3.18198 5.21492,-5.25911 1.32582,-2.07712 2.16551,-3.97747 2.38648,-5.43588 0.22097,-1.45841 -0.57452,-5.25911 -0.83969,-6.40815 -0.26516,-1.14905 -1.23744,-4.5962 -0.92808,-5.48008 0.30936,-0.88388 0.30936,-2.38649 1.63519,-3.09359 1.32582,-0.70711 1.98874,-0.53033 2.43068,-1.50261 0.44194,-0.97227 1.10485,-4.24264 1.19324,-5.52427 0.0884,-1.28163 -0.17678,-3.53553 0.61872,-4.77297 0.79549,-1.23743 3.0052,-3.57973 5.70105,-4.90555 2.69584,-1.32583 5.43588,-2.34229 6.45235,-2.38649 1.01646,-0.0442 3.57973,0.39775 4.15425,0.7513 0.57452,0.35356 1.5468,1.45841 1.85615,3.18199 0.30936,1.72357 0.70684,2.8573 1.06067,3.62392 0.53033,1.14905 1.32582,1.98874 2.16551,1.90035 0.70711,0.0884 1.67937,-1.10486 1.81196,-1.90036 0.13258,-0.79549 0.66291,-3.57972 0.57452,-4.4636 -0.0884,-0.88389 -0.0442,-3.53554 0.17678,-3.93329 0.22097,-0.39774 0.97227,-2.16551 2.20971,-2.43068 1.23744,-0.26516 2.65165,-0.92807 3.93328,-0.88388 1.28163,0.0442 1.5026,0.39775 2.2539,-0.30936 0.75131,-0.7071 1.59099,-2.96101 1.81197,-4.15425 0.22097,-1.19324 0.53033,-2.47487 1.14904,-2.87262 0.61872,-0.39775 1.76777,-0.48614 2.47488,-1.10486 0.7071,-0.61871 0.75129,-1.23743 0.53032,-2.16551 -0.22097,-0.92808 -1.67937,-2.91682 -2.2097,-4.11006 -0.57453,-0.79549 -1.14905,-2.87262 -0.26517,-4.46361 0.88389,-1.59099 2.3423,-2.16551 3.53554,-2.96101 1.19324,-0.7955 4.02167,-1.98874 4.94975,-3.49134 0.92807,-1.5026 1.98874,-4.5078 2.16551,-5.78944 0.17678,-1.28163 1.72357,-4.15425 2.20971,-5.2591 0.48613,-1.10486 0.88388,-1.76777 0.88388,-1.76777"
       id="path3839"
       inkscape:connector-curvature="0"
       sodipodi:nodetypes="cssssssssscsssssssscsscsssssssssscsscccsssssssscsssssc" />
    <path
       style="fill:none;stroke:#000000;stroke-width:2;stroke-linecap:butt;stroke-linejoin:miter;stroke-miterlimit:4;stroke-opacity:1;stroke-dasharray:none"
       d="m 476.50158,845.77141 c 2.20971,0.26517 6.27557,4.5962 6.36396,5.83364 0.0884,1.23743 -1.06066,1.67937 -0.35355,3.44714 0.70711,1.76777 0.0884,2.74004 2.12132,2.82843 2.03293,0.0884 3.8007,-0.26517 5.12652,-0.97227 1.32583,-0.70711 6.36397,-4.86136 7.24785,-5.12653 0.88388,-0.26516 9.98788,0.0884 10.87177,0.35356 0.88388,0.26516 2.82842,1.06066 3.53553,2.12132 0.70711,1.06066 1.41421,3.0052 2.91681,3.88908 1.50261,0.88389 4.68459,3.71231 5.74525,4.68459 1.06066,0.97227 3.8007,2.82842 4.86136,3.18198 1.06066,0.35355 13.43503,3.44714 14.93763,3.44714 1.5026,0 2.65165,0.35355 3.27037,-0.53033 0.61871,-0.88388 1.85615,-2.47487 1.76776,-3.27037 -0.0884,-0.79549 0.61872,-4.94974 1.41422,-5.39169 0.79549,-0.44194 2.47487,-0.44194 3.35875,0.0884 0.88389,0.53033 5.21492,3.53554 5.83363,3.71231 0.61872,0.17678 6.01041,2.03293 7.24785,1.85616 1.23744,-0.17678 2.47487,-1.06066 2.74004,-1.67938 0.26516,-0.61872 0.39775,-2.69585 1.06066,-3.40295 0.66291,-0.70711 2.2539,-1.5026 3.71231,-2.03293 1.45841,-0.53033 3.62392,-1.94455 4.19845,-2.65165 0.57452,-0.70711 0.53033,-3.71232 1.59099,-4.50781 1.06066,-0.7955 3.0052,-1.59099 4.5078,-1.41421 1.5026,0.17677 3.44715,0.22097 5.03814,0.79549 1.59099,0.57453 3.22617,1.14905 4.77297,1.10486 1.54679,-0.0442 2.60745,0.13258 3.57973,0.97227 0.97227,0.83969 2.43068,2.16551 3.49134,2.29809 1.06066,0.13259 2.2097,1.10486 3.53553,0.61872 1.32583,-0.48613 5.17072,-2.87262 5.56847,-3.31456 0.39774,-0.44194 3.53553,-2.38649 5.17071,-2.69585 1.63519,-0.30935 5.03814,-1.72357 5.30331,-2.2097 0.26516,-0.48614 0.35355,-0.88389 0,-2.16552 -0.35356,-1.28163 -1.63519,-5.87782 -1.41422,-6.58493 0.22097,-0.70711 1.06066,-0.83969 0.26517,-1.14905 -0.7955,-0.30936 -6.89429,-0.35355 -7.38043,-1.01646 -0.48614,-0.66292 -1.23744,-0.39775 -0.30936,-2.20971 0.92808,-1.81196 3.71231,-6.36396 4.33103,-7.38043 0.61872,-1.01647 1.98874,-3.88909 2.34229,-4.552 0.35355,-0.66291 0.75352,-3.33823 0.75352,-4.57567 0,-1.23743 0.39553,-3.02573 1.01425,-4.21897 0.61872,-1.19324 2.60745,-3.75651 2.78423,-4.5962 0.17678,-0.83968 1.01647,-3.27036 1.19324,-4.68458 0.17678,-1.41421 -0.25031,-2.5837 -1.52849,-3.59489 -1.24816,-0.98744 -2.32712,-3.14721 -2.45971,-4.29626 -0.13258,-1.14905 -0.16605,-4.39483 -0.16605,-5.63226 0,-1.23744 -0.38035,-3.03914 -1.35263,-3.79045 -0.97227,-0.7513 -3.95381,-0.38165 -5.05867,0.28126 -1.10485,0.66292 -1.8687,2.15267 -2.7012,2.79939 -1.94638,1.51204 -3.74273,2.06603 -3.74273,2.06603"
       id="path3841"
       inkscape:connector-curvature="0"
       sodipodi:nodetypes="csssssssssssscsccscsscssssssssscsssssssssssssssssc" />
    <path
       style="fill:none;stroke:#000000;stroke-width:2;stroke-linecap:butt;stroke-linejoin:miter;stroke-miterlimit:4;stroke-opacity:1;stroke-dasharray:none"
       d="m 615.53125,837.87109 c 0,0 4.34375,0 5.53125,-0.4375 1.1875,-0.4375 5.375,-2.25 6.0625,-2.375 0.6875,-0.125 0.625,0.875 0.6875,1.375 0.0625,0.5 0.1875,9.3125 0.5,10.5 0.3125,1.1875 1.80178,2.79733 2.67678,3.23483 0.875,0.4375 1.94822,1.57767 2.69822,2.07767 0.75,0.5 3.92425,0.0502 5.07636,-0.17678 1.41606,-0.27903 5.67364,-2.07322 7.36114,-1.88572 1.6875,0.1875 4.125,0 6.6875,1.125 2.5625,1.125 3.53531,1.78661 4.51386,3.44822 0.94299,1.60122 1.47619,4.36124 1.16683,5.24513 -0.30936,0.88388 -2.12132,3.57972 -2.78424,4.41941 -0.66291,0.83969 -1.76776,1.76777 -2.03292,3.66812 -0.23216,1.66384 -0.17678,1.32583 0.35355,2.47488"
       id="path3843"
       inkscape:connector-curvature="0"
       sodipodi:nodetypes="csssssssssssssc" />
    <path
       style="fill:none;stroke:#000000;stroke-width:2;stroke-linecap:butt;stroke-linejoin:miter;stroke-miterlimit:4;stroke-opacity:1;stroke-dasharray:none"
       d="m 154.32605,939.72823 c 2.2981,-6.54074 3.91119,-7.88866 5.14862,-11.4242 1.23744,-3.53553 0.97228,-3.22617 2.20971,-6.87219 1.16986,-3.44695 2.69585,-4.66249 3.40296,-8.02124 0.70711,-3.35876 0.11049,-12.63953 0.33145,-16.44024 0.18418,-3.16802 4.24264,-7.11526 5.21492,-9.41335 0.97227,-2.2981 0.84276,-5.34179 0.13258,-7.31414 -0.58611,-1.62777 -1.28164,-2.34229 -1.41422,-3.97748 -0.24297,-2.99667 0.84847,-4.96059 2.54116,-7.04897 1.70148,-2.09922 2.12133,-5.10442 2.20972,-8.17592 0.0817,-2.83965 0,-11.57887 -0.72921,-14.62827 -0.6376,-2.66629 -1.74566,-4.33102 -2.03293,-6.40815 -0.23134,-1.67274 -0.33146,-2.98311 1.61309,-5.83363 1.90194,-2.78806 5.67895,-6.1209 6.03251,-7.80028 0.35355,-1.67938 0.39774,-2.03293 0.44193,-3.64601 0.0353,-1.28648 -0.11048,-3.8449 0.37564,-5.56847 0.47323,-1.67784 4.06587,-5.50217 5.54638,-6.62913 1.38536,-1.05453 3.20407,-1.59099 3.82279,-2.65165 0.61872,-1.06066 1.48051,-3.0273 1.48051,-3.0273"
       id="path3845"
       inkscape:connector-curvature="0"
       sodipodi:nodetypes="csssssssssssssssssc" />
    <path
       style="fill:none;stroke:#000000;stroke-width:2;stroke-linecap:butt;stroke-linejoin:miter;stroke-miterlimit:4;stroke-opacity:1;stroke-dasharray:none"
       d="m 182.5,958.30859 c 0.75,-3.875 1.4375,-5 2.125,-6.28125 0.6875,-1.28125 1.6875,-3.21875 2,-4.1875 0.3125,-0.96875 0.28125,-2.625 1.40625,-3.75 1.125,-1.125 5.75,-5.03125 6.34375,-5.90625 0.59375,-0.875 1.6875,-2.1875 1.90625,-3.375 0.21875,-1.1875 0.28125,-3.59375 0.34375,-4.28125 0.0625,-0.6875 -0.125,-1.90625 0.71875,-2.78125 0.84375,-0.875 3.0625,-2.34375 4.4375,-2.84375 1.375,-0.5 3.09375,-1.3125 3.6875,-1.9375 0.59375,-0.625 1.3125,-2.1875 1.375,-2.8125 0.0625,-0.625 -0.46875,-2.96875 -0.78125,-3.78125 -0.3125,-0.8125 -1.3125,-2.625 -1.59375,-3.34375 -0.28125,-0.71875 -1.84375,-6.21875 -2.0625,-6.96875 -0.21875,-0.75 -0.84375,-3.625 -0.8125,-4.875 0.0312,-1.25 -0.40625,-3.5625 -0.0625,-4.6875 0.34375,-1.125 0.125,-2.78125 0.96875,-3.4375 0.84375,-0.65625 2,-1.125 2.75,-1.125 0.75,0 4.09375,0.125 4.59375,0.34375 0.5,0.21875 1.53125,0.28125 1.75,0.9375 0.21875,0.65625 0.46875,2.8125 0.65625,3.96875 0.1875,1.15625 0.46875,2.09375 0.90625,2.3125 0.4375,0.21875 3.09375,0.65625 3.5625,0.40625 0.46875,-0.25 1.40625,-0.78125 1.46875,-1.375 0.0625,-0.59375 -0.5625,-2.8125 -0.9375,-3.4375 -0.375,-0.625 -1.15625,-2.40625 -1.1875,-3.0625 -0.0312,-0.65625 -0.0312,-2.09375 0.4375,-2.75 0.46875,-0.65625 2.4375,-2.65625 3.15625,-3.4375 0.71875,-0.78125 2.40625,-2.71875 2.59375,-3.21875 0.1875,-0.5 2.1875,-3.4375 2.6875,-3.84375 0.5,-0.40625 1.59375,-1.46875 2.1875,-1.8125 0.59375,-0.34375 3.0625,-1.125 3.6875,-1.53125 0.625,-0.40625 2.15625,-1.75 2.3125,-1.625 0.15625,0.125 -3.375,8.125 -3.40625,8.90625 -0.0312,0.78125 0.34375,3.71875 0.3125,4.8125 -0.0312,1.09375 0.125,4.53125 -0.0312,5.21875 -0.15625,0.6875 -0.15625,0.9375 0.1875,1.125 0.34375,0.1875 1.125,0.40625 1.78125,0.28125 0.65625,-0.125 5.5,-0.84375 6.59375,-0.5 1.09375,0.34375 2.65625,1.03125 3.40625,1.15625 0.75,0.125 2,-0.15625 2.3125,-0.65625 0.3125,-0.5 1.46875,-2.21875 1.5625,-2.6875 0.0937,-0.46875 0.28125,-1.625 0.5625,-1.375 0.28125,0.25 5.46875,5.46875 6.25,5.78125 0.78125,0.3125 9.9375,2.40625 10.8125,2.46875 0.875,0.0625 9.59375,-0.5625 9.8125,-0.5 0.21875,0.0625 0.65625,0.21875 1.0625,-0.0625 0.40625,-0.28125 4.40625,-5.84375 5.03125,-8 0.625,-2.15625 0.5625,-5.375 0.28125,-6.84375 -0.28125,-1.46875 -0.58552,-3.12213 -0.90625,-4.65625 -0.19565,-0.93583 -0.01,-1.55634 1.18593,-2.63036 0.91712,-0.82366 3.34532,-2.02589 3.75157,-2.61964 0.40625,-0.59375 4.03125,-5.34375 4.03125,-5.34375"
       id="path3847"
       inkscape:connector-curvature="0"
       sodipodi:nodetypes="cssssssssssssscssssssssssccsssssscccssssscssssssssssc" />
    <path
       style="fill:none;stroke:#000000;stroke-width:2;stroke-linecap:butt;stroke-linejoin:miter;stroke-miterlimit:4;stroke-opacity:1;stroke-dasharray:none"
       d="m 397.88015,987.14858 c 0.30936,-1.90035 -0.44194,-4.5962 -0.83969,-5.52428 -0.39775,-0.92807 -1.32583,-3.22617 -1.32583,-4.28683 0,-1.06066 -0.61872,-2.51907 0.0884,-4.37522 0.70711,-1.85616 2.65165,-4.99395 2.74004,-5.70105 0.0884,-0.70711 0.22097,-3.00521 0.22097,-3.97748 0,-0.97227 -0.0663,-4.06586 0.41985,-4.99394 0.48613,-0.92808 1.4805,-2.14342 2.2318,-2.54117 0.7513,-0.39774 2.60746,-1.70147 3.0052,-2.14341 0.39775,-0.44194 1.81197,-2.51907 2.07713,-4.24264 0.26517,-1.72358 1.90035,-5.3033 1.06066,-6.80591 -0.83969,-1.5026 -1.45841,-1.25953 -2.38649,-2.09922 -0.92808,-0.83969 -1.4584,-2.05503 -1.67937,-3.20408 -0.22097,-1.14904 -0.68502,-2.20971 0.15469,-3.60183 0.73506,-1.21863 2.2539,-1.4584 3.18197,-1.4584 0.89378,0 2.98304,-0.10328 3.79554,-0.79078 0.8125,-0.6875 2.53125,-1.84375 3.09375,-2.65625 0.5625,-0.8125 0.75,-1.28125 1.8125,-1.6875 1.0625,-0.40625 4.03125,-0.9375 4.8125,-1.53125 0.78125,-0.59375 2.3125,-1.625 1.96875,-2.65625 -0.34375,-1.03125 -1.10284,-1.92207 -2,-2.5 -0.60531,-0.38993 -1.28125,-0.90625 -2.09375,-0.53125 -0.50198,0.23168 -1.4375,2.09375 -1.9375,2.5 -0.5,0.40625 -1.6875,0.75 -2.375,0.53125 -0.6875,-0.21875 -3.15625,-0.28125 -4.0625,-0.125 -0.90625,0.15625 -3.58402,1.09445 -5.40625,0.9375 -1.35574,-0.11677 -3.46875,-0.78125 -3.84375,-1.375 -0.375,-0.59375 -0.375,-1.125 0,-1.75 0.375,-0.625 1.46875,-1.96875 1.625,-2.46875 0.15625,-0.5 0.4375,-2.03125 0.625,-2.6875 0.1875,-0.65625 1.1875,-2.65625 1.1875,-2.65625"
       id="path3849"
       inkscape:connector-curvature="0"
       sodipodi:nodetypes="cssscsssssssssssssssassssassssc" />
    <path
       style="fill:none;stroke:#000000;stroke-width:2;stroke-linecap:butt;stroke-linejoin:round;stroke-miterlimit:4;stroke-opacity:1;stroke-dasharray:none"
       d="m 487.10818,1019.7197 c -0.35355,-6.0988 -0.88388,-7.0269 -1.39211,-9.104 -1.67938,-1.8561 -2.76214,-2.6517 -3.20408,-5.2149 -0.44194,-2.5633 -0.70711,-7.51304 -0.35355,-9.89952 0.35355,-2.38649 -0.0647,-3.47394 -0.25219,-4.66144 -0.1875,-1.1875 -0.6875,-2.5625 -0.34375,-3.6875 0.34375,-1.125 1.375,-1.875 1.1875,-2.75 -0.1875,-0.875 -0.34375,-1.96875 -1.1875,-2.34375 -0.84375,-0.375 -5.96875,-1 -7.125,-2.5625 -1.15625,-1.5625 -1.90625,-3.1875 -2.03125,-4.78125 -0.125,-1.59375 0.1875,-8.125 0.25,-8.5 0.0625,-0.375 0.28125,-1.0625 0.90625,-1.09375 0.625,-0.0312 2.09375,0.1875 2.59375,0.4375 0.5,0.25 3.625,1.875 4.40625,2.625 0.78125,0.75 0.96875,1.21875 1.875,1.4375 0.90625,0.21875 6.53125,0.25 7.65625,0.0625 1.125,-0.1875 2.46875,-0.3125 3.03125,-0.0625 0.5625,0.25 2.75,1.40625 3.25,1.875 0.5,0.46875 2.53125,1.6875 3.40625,2 0.875,0.3125 4.96875,0.40625 5.5,0.6875 0.53125,0.28125 1.71875,1.34375 1.96875,2.125 0.25,0.78125 0.53125,1.4375 0.78125,1.40625 0.25,-0.0312 1.46875,-1.125 1.8125,-1.8125 0.34375,-0.6875 2.09375,-4.71875 2.53125,-5.375 0.4375,-0.65625 2.125,-3.46875 2.3125,-4 0.1875,-0.53125 0.90625,-4.15625 0.71875,-5.625 -0.1875,-1.46875 -0.59375,-3.25 -0.65625,-4.46875 -0.0625,-1.21875 -0.34375,-2.46875 0.5625,-3 0.90625,-0.53125 3.25,-1.28125 4.28125,-1.53125 1.03125,-0.25 2.65625,-0.1875 3.78125,-0.84375 1.125,-0.65625 3.40625,-2.28125 3.78125,-3.25 0.375,-0.96875 1.21875,-3.3125 1.28125,-4.75 0.0625,-1.4375 0.59375,-4.09375 0.1875,-5.09375 -0.40625,-1 -5.5,-5.9375 -5.5,-6.5625 0,-0.625 4.25,-7.28125 4,-7.9375 -0.25,-0.65625 -0.96875,-1.4375 -2.1875,-2.03125 -1.21875,-0.59375 -4.59375,-1.71875 -5.90625,-2.84375 -1.3125,-1.125 -3.3125,-2.75 -4.59375,-3.15625 -1.28125,-0.40625 -2.6875,-0.40625 -3.75,-1.15625 -1.0625,-0.75 -2.53125,-3.53125 -4.09375,-4.03125 -1.5625,-0.5 -12.46875,-2.71875 -13.40625,-3.1875 -0.9375,-0.46875 -1.96875,-1.3125 -2.03125,-2.21875 -0.0625,-0.90625 1.03125,-4.75 1.4375,-5.9375 0.40625,-1.1875 0.8125,-3.65625 1.28125,-4.28125 0.46875,-0.625 1,-1.1875 2.1875,-1.5 1.1875,-0.3125 3.375,-0.5625 4.625,-1.125 1.25,-0.5625 2.90625,-1.21875 3.9375,-1.625 1.03125,-0.40625 2.28125,-0.84375 3.65625,-0.9375 1.375,-0.0937 1.875,0.125 3.4375,-0.0312 1.5625,-0.15625 2.46875,0.1875 2.5,-0.46875 0.0312,-0.65625 -0.1875,-1.03125 -1.0625,-1.8125 -0.875,-0.78125 -1.03125,-0.71875 -0.9375,-1.0625 0.0937,-0.34375 2.75,-1.53125 3.6875,-1.8125 0.9375,-0.28125 5.90625,-1.375 7.25,-2.1875 1.34375,-0.8125 3.40625,-2.84375 4.09375,-4.125 0.6875,-1.28125 2.09375,-3.40625 2.25,-4.46875 0.15625,-1.0625 0.5625,-1.75 0.625,-3.4375 0.0625,-1.6875 0,-2.6875 0,-2.6875"
       id="path3851"
       inkscape:connector-curvature="0"
       sodipodi:nodetypes="ccssssssssscssssssssscssssssssssssssssssssssssscccscsssssc" />
    <path
       style="fill:#c6ecff;fill-opacity:1;stroke:#0978ab;stroke-width:2;stroke-linecap:butt;stroke-linejoin:miter;stroke-miterlimit:4;stroke-opacity:1;stroke-dasharray:none"
       d="m 545.9375,266.74609 17.875,4.8125 c 0,0 0.1875,-1.125 -0.5,-1.75 -0.6875,-0.625 -0.90625,-0.57813 -1.65625,-1.125 -1.17895,-0.85965 -1.26563,-1.15625 -1.89063,-1.34375 -0.625,-0.1875 -0.82812,-0.92188 -0.85937,-1.10938 -0.125,-0.75 -0.27099,-1.24348 0.5625,-1.21875 0.64041,0.019 2.39367,0.062 3.21875,0.0469 0.81236,-0.0149 1.10938,0.125 2.17188,-0.5625 1.0625,-0.6875 0.56249,-0.35938 1.81249,-1.42188 1.25,-1.0625 1.45313,-1.42187 2.10938,-2.18749 0.63536,-0.74125 0.89063,-1.67188 1.82813,-1.79688 0.9375,-0.125 1.67187,0.125 2.42187,0.5625 0.75,0.4375 1.86009,0.78996 2.67187,0.71875 0.89063,-0.0781 2.66547,-0.0846 3.95313,-0.29688 1.42188,-0.23437 2.34225,-0.1259 3.32813,-0.30468 1.50781,-0.27344 1.99281,-0.0281 2.98437,0.10156 1.01563,0.13281 1.46922,0.24088 2.64844,-0.10156 0.66425,-0.1929 1.13999,-0.0795 1.99218,-0.80469 0.74048,-0.63008 1.59376,-1.58594 2.15626,-1.64844 0.5625,-0.0625 0.85937,-0.11719 1.53906,0.78125 0.55675,0.73593 1.69526,1.50327 2.63281,1.89844 0.94531,0.39844 1.58594,0.42187 2.64844,0.29687 1.0625,-0.125 2.47656,0.45313 3.5625,0.0469 1.04715,-0.39174 1.375,-0.6875 2.0625,-1.4375 0.6875,-0.75 1.64062,-0.8125 2.09375,-2.375 0.29181,-1.00623 -0.25,-0.14062 -1.0625,-0.64062 -0.8125,-0.5 -0.99219,-0.78125 -1.80469,-1.36719 -1.30332,-0.93989 -1.60938,-1.10938 -1.97656,-1.39063 -0.85365,-0.65386 -1.53907,-0.5625 -2.375,-1.38281 -0.78034,-0.76576 -0.82031,-0.86719 -1.55469,-1.38281 -0.65104,-0.45712 -1.08594,-0.4375 -2.5,-0.82031 -1.88568,-0.51049 -2.15625,-0.79688 -3.46875,-0.79688 -1.3125,0 -2.28906,0.625 -3.10156,1.125 -0.8125,0.5 -1.19532,0.32813 -2.07032,-0.29687 -0.875,-0.625 -1.61718,-1.14063 -2.42968,-0.89063 -0.8125,0.25 -1.74219,1.10156 -2.30469,1.28906 -0.5625,0.1875 -1.29449,0.46939 -2.82031,0.13281 -1.59375,-0.35156 -2.75,-0.47656 -3.5,-0.22656 -0.75,0.25 -2.04688,0.82813 -2.6875,0.96094 -0.4934,0.10229 -2.14115,0.24155 -2.92188,0.11719 -0.88281,-0.14063 -2.15625,-0.64844 -3.34375,-0.39844 -1.1875,0.25 -2.19531,1.0625 -2.63281,1.75 -0.4375,0.6875 -1.07812,2.17969 -1.26562,2.80469 -0.1875,0.625 -0.48438,1.13281 -1.42188,2.19531 -0.9375,1.0625 -1.375,1.5625 -2.5,2.5 -1.125,0.9375 -1.6875,1.4375 -2.5,1.625 -0.8125,0.1875 -1.75,0.0625 -2.4375,0.75 -0.6875,0.6875 -0.875,0.8125 -1.5625,1.6875 -0.6875,0.875 -0.875,1.4375 -1.75,1.5 -0.875,0.0625 -2.125,0.375 -2.9375,0.4375 -0.8125,0.0625 -2.34375,0.1875 -3.21875,0.5 -0.875,0.3125 0.78125,0.4375 0.78125,0.4375 z"
       id="path3853"
       inkscape:connector-curvature="0"
       sodipodi:nodetypes="ccsssssssssssssssssssssssssssssssssssssssssssssssssscc" />
    <path
       style="fill:#c6ecff;fill-opacity:1;stroke:#0978ab;stroke-width:2;stroke-linecap:butt;stroke-linejoin:miter;stroke-miterlimit:4;stroke-opacity:1;stroke-dasharray:none"
       d="m 245.59153,796.81303 c -1.3125,1.6875 -1.70856,1.95666 -2.13572,2.59911 -0.97663,1.46882 -0.81447,2.22577 -0.69509,2.67613 0.10614,0.40038 0.86287,1.22195 2.12209,1.34532 1.13509,0.11121 2.46185,-0.10592 3.53906,0.28906 0.70313,0.25781 1.76753,0.68903 2.46875,1.8125 0.72657,1.16406 0.81623,2.83372 1.50001,3.85938 0.37499,0.5625 1.08673,1.2802 1.10156,1.4375 0.0482,0.51168 0.69531,1.47656 -0.49219,2.85156 -1.1875,1.375 -1.48437,1.94531 -1.92187,2.75781 -0.4375,0.8125 -0.89063,1.24219 -1.51563,1.74219 -0.625,0.5 -0.78325,0.9836 -0.82031,1.51563 -0.0315,0.45165 -0.008,1.47046 0.0703,1.69531 0.067,0.19331 1.28263,0.42187 2.03906,0.35937 0.62599,-0.0517 1.33594,-0.32031 1.52344,-0.88281 0.1875,-0.5625 0.50781,-1.30469 0.69531,-2.05469 0.1875,-0.75 -0.0312,-0.49219 0.65625,-1.92969 0.6875,-1.4375 1.39844,-2.51562 1.71094,-3.07812 0.3125,-0.5625 0.53125,-1.0625 1.65625,-1.9375 1.125,-0.875 2.50781,-1.46094 3.10156,-1.98438 0.53455,-0.47124 2.58594,-1.35937 3.58594,-1.73437 1,-0.375 2.17187,-0.75781 3.40625,-0.98437 1.17444,-0.21557 2.05469,-0.11719 3.125,0.39062 1.01797,0.48298 0.24558,1.09678 1.28906,1.58594 0.7815,0.36635 1.75934,0.33057 1.89844,0.91406 0.28917,1.21298 0.1875,1.5625 0.6875,2.1875 0.5,0.625 0.8125,1 0.9375,1.6875 0.125,0.6875 0.14844,1.97656 0.25,2.21875 0.26144,0.62344 1.20313,0.78906 1.51563,0.66406 0.3125,-0.125 0.60156,-0.76562 0.53906,-1.76562 -0.0625,-1 -0.14844,-2.125 0.10156,-2.5 0.25,-0.375 1.3125,-1.03907 2.1875,-1.28907 0.875,-0.25 1.40625,-0.45312 1.65625,-1.26562 0.25,-0.8125 0.16406,-6.375 0.0391,-7 -0.125,-0.625 -2.03906,-1.57031 -2.47656,-1.84375 -0.3352,-0.2095 -1.45313,-3.08594 -1.95313,-3.77344 -0.5,-0.6875 -0.47656,-1.28125 -0.85156,-1.90625 -0.375,-0.625 -2.88281,-2.23437 -3.57031,-2.54687 -0.6875,-0.3125 -1.68404,-0.62849 -1.96875,-0.90625 -0.21484,-0.2096 -1.0625,-1.40625 -1.53906,-1.5 -1.07493,-0.21146 -1.58594,-0.14839 -2.64844,0.10156 -1.0625,0.25 -1.49219,0.47656 -2.84375,0.65625 -1.125,-0.0312 -2.74219,-0.0312 -3.61719,0.1875 -0.875,0.21875 -1.13281,0.44526 -1.49219,0.82031 -1.15625,1.0625 -1.75781,1.65625 -2.50781,1.78125 -0.75,0.125 -1.64827,0.78812 -2,0.92188 -0.55469,0.21094 -1.13281,-0.0234 -2.44531,0.38281 -1.3125,0.40625 -1.5,0.78125 -2.40625,1.21875 -0.90625,0.4375 -0.83931,0.94129 -1.43306,0.59754 -0.59375,-0.34375 -1.34359,-1.30722 -2.06916,-0.37435 z"
       id="path3855"
       inkscape:connector-curvature="0"
       sodipodi:nodetypes="ssssssssssssssssssssssssssssssssssssssssccscssssss" />
    <path
       sodipodi:nodetypes="csssssssssssssssssssssssssssssssssssssssssssssssscssssssscssssssscsssssssssssssssscc"
       inkscape:connector-curvature="0"
       id="path3861"
       d="m 827.74998,528.43319 c 0,0 -2.23933,0.66143 -3.68488,2.09268 -1.70506,1.68821 -4.59729,2.75734 -6.42213,4.08665 -1.82484,1.32932 -3.78125,3.45855 -4.65886,5.22286 -1.0143,2.03909 -2.92644,3.16369 -3.5611,4.65831 -3.02812,7.13115 1.47668,5.96138 -2.08568,8.61954 -1.30915,0.97685 -2.01629,1.20744 -2.60472,2.09259 -0.58844,0.88516 -2.38399,3.75072 -2.86478,4.69423 -0.48078,0.9435 -3.18232,1.24659 -4.1685,2.39849 -0.98619,1.1519 0.18492,2.79907 -1.91972,4.30942 -1.05232,0.75517 -10.02701,-1.36446 -11.44967,0.36074 -1.42266,1.72521 -0.87725,1.99218 -2.55727,4.4144 -1.68001,2.42222 -6.64796,-0.6253 -8.47235,2.22093 -1.82439,2.84623 1.80728,5.83621 -0.0485,8.83343 -1.85578,2.99721 -3.5115,0.75167 -5.28568,3.62687 -1.77418,2.8752 0.35259,3.67129 1.00358,6.53879 0.25803,1.13656 2.72928,1.91201 2.61978,4.12331 -0.005,0.0994 1.00486,3.58907 0.91368,3.83015 -0.0912,0.24107 1.23562,3.50915 1.06923,3.87258 -0.16639,0.36344 -0.67696,4.76073 -0.90743,5.22727 -0.23047,0.46655 -2.61152,0.4495 -2.89497,0.9999 -0.28345,0.55039 -2.44678,1.35887 -2.7721,1.97385 -0.32533,0.61499 -1.59688,2.71587 -1.95298,3.37619 -0.3561,0.66032 -2.90397,0.46764 -3.27974,1.15403 -0.37577,0.6864 -2.1961,2.59976 -2.58044,3.29297 -0.38434,0.69322 -3.02019,3.76002 -3.402,4.44079 -0.38181,0.68077 -2.97832,2.81925 -3.81524,3.15582 -0.69232,0.27842 -1.6955,1.58997 -2.44519,2.00058 -0.60491,0.33131 -3.92173,0.32217 -4.54182,0.69381 -0.52407,0.31409 -3.5945,1.39086 -4.0739,1.67303 -0.43957,0.25872 -5.02632,1.17103 -5.54143,1.28197 -0.37829,0.0815 -6.74586,0.0288 -7.31683,-0.11329 -0.23469,-0.0584 -7.63209,-1.38977 -7.70742,-1.37876 -3.33228,0.48699 -4.36652,-0.0237 -11.08895,-1.42938 -1.91975,-0.40143 -1.97647,1.21506 -0.67321,1.77994 3.75401,1.62712 3.51642,2.20578 0.61217,3.97447 -1.36343,0.83034 -2.68576,3.97614 -5.31165,4.26462 -1.50239,0.16505 -4.19567,3.8003 -5.27479,3.35749 -0.63683,-0.26132 -4.0987,-0.17411 -4.76253,-2.15279 -0.66382,-1.97868 -2.50381,-2.15676 -2.60248,-3.85316 -0.0704,-1.21127 1.98304,-1.68153 2.2016,-3.11244 0.12784,-0.83692 -0.98969,-3.86597 -1.36596,-4.90472 -0.28605,-0.78967 1.01853,-2.13293 1.17103,-3.53761 0.20603,-1.89783 -2.09446,-4.96291 -2.18368,-5.0043 0,0 -1.21526,0.0472 -1.69515,0.0149 -0.47989,-0.0323 -1.03692,-0.1442 -1.84546,-0.21234 -0.80853,-0.0682 -1.05607,-1.78016 -2.042,-1.88775 -0.98592,-0.10758 -1.89773,1.38925 -2.9098,1.23871 -1.01206,-0.15054 -2.09313,-1.4797 -2.98009,-1.67675 -0.88695,-0.19704 -1.39229,-0.48073 -3.27484,-1.28336 0.40248,-1.22944 2.65172,-0.64331 4.32568,-2.95718 0.9365,-1.29451 1.29745,-4.51409 2.80787,-5.64825 1.51042,-1.13416 4.27964,-1.30101 6.26716,-2.13571 0.73733,-0.30966 3.63651,-0.47855 5.16293,-1.33605 1.2415,-0.69745 2.88904,0.28806 4.39514,1.29398 1.56603,1.04595 2.95346,0.83906 4.87031,0.53871 1.91685,-0.30035 2.85918,-1.00515 4.64389,-2.497 1.44417,-1.20719 2.42253,-1.93116 3.80646,-4.45311 -0.1158,-3.69908 0.13679,-7.18712 5.0003,-6.14792 2.73794,0.58502 2.964,-0.0842 5.02323,-0.11614 2.05922,-0.0319 2.38486,-2.62466 4.13402,-2.17015 2.0273,0.52677 3.25014,3.93596 5.09678,3.41287 0.92332,-0.26155 3.24297,-0.002 5.53655,-0.81578 2.29358,-0.81378 4.56109,-2.70094 5.73369,-2.65966 0.26633,0.009 3.10992,0.57379 4.72242,-0.62054 1.61251,-1.19433 3.45235,-2.20286 6.79352,-2.64352 1.08727,-3.04811 0.91243,-4.9452 2.85263,-6.13057 2.14875,-1.31279 2.80999,-1.99472 3.81573,-2.55227 0.30087,-0.16679 2.123,-0.0675 3.81059,-1.65805 1.68759,-1.59059 0.76576,-3.63367 3.00333,-5.7872 2.23756,-2.15353 5.47844,-4.3084 8.08271,-4.99146 2.52532,-0.66236 4.8688,-1.30431 5.17179,-2.85057 0.23426,-1.19547 -0.17675,-4.23817 0.52515,-5.35446 0.7019,-1.11628 1.67295,1.06885 2.60883,0.079 0.93587,-0.98981 1.49281,-2.59206 2.42899,-3.4081 0.93617,-0.81604 2.62658,1.06037 3.32939,0.46539 1.40562,-1.18997 2.78509,-1.7084 4.35982,-3.35226 1.14169,-1.1918 4.30004,-0.57367 5.27231,-1.39891 1.94455,-1.65048 -0.30756,-6.89092 2.13512,-8.11074 0.48285,-0.24112 1.10659,-1.35933 2.39878,-2.32048 1.24951,-0.9294 2.53248,-2.61844 3.64735,-4.37214 1.22148,-1.92141 2.94136,-3.08163 3.91807,-4.71 0.89874,-1.49838 2.36713,-2.64243 3.21093,-3.33401 0.11121,-8.64379 1.17789,1.68638 12.54338,-0.60738 z"
       style="fill:#c6ecff;fill-opacity:1;stroke:#0978ab;stroke-width:3;stroke-linecap:butt;stroke-linejoin:round;stroke-miterlimit:4;stroke-opacity:1;stroke-dasharray:none" />
  </g>
</svg>
